<svg width="96" height="96" viewBox="0 0 96 96" fill="none" xmlns="http://www.w3.org/2000/svg">
<g filter="url(#filter0_d_1483_16723)">
<rect x="24" y="12" width="48" height="48" rx="12" fill="#E7FFFC" shape-rendering="crispEdges"/>
<path fill-rule="evenodd" clip-rule="evenodd" d="M48.0002 30.3333C48.3684 30.3333 48.6668 30.6318 48.6668 31V49C48.6668 49.3682 48.3684 49.6667 48.0002 49.6667C47.632 49.6667 47.3335 49.3682 47.3335 49V31C47.3335 30.6318 47.632 30.3333 48.0002 30.3333Z" fill="#03A500"/>
<path fill-rule="evenodd" clip-rule="evenodd" d="M41.404 35.7019C41.5687 35.3725 41.9691 35.2391 42.2985 35.4037L48.2985 38.4037C48.6278 38.5684 48.7613 38.9688 48.5966 39.2981C48.4319 39.6275 48.0315 39.7609 47.7022 39.5963L41.7022 36.5963C41.3728 36.4316 41.2394 36.0312 41.404 35.7019Z" fill="#03A500"/>
<path fill-rule="evenodd" clip-rule="evenodd" d="M54.5966 32.7019C54.7613 33.0312 54.6278 33.4316 54.2985 33.5963L48.2985 36.5963C47.9691 36.7609 47.5687 36.6275 47.404 36.2981C47.2394 35.9688 47.3728 35.5684 47.7022 35.4037L53.7022 32.4037C54.0315 32.2391 54.4319 32.3725 54.5966 32.7019Z" fill="#03A500"/>
<path fill-rule="evenodd" clip-rule="evenodd" d="M42.9255 23.8686C44.4292 22.869 46.1946 22.3358 48.0002 22.3358C49.8058 22.3358 51.5712 22.869 53.0749 23.8686C54.5763 24.8667 55.75 26.2853 56.4492 27.9469C56.4863 28.028 56.5489 28.0946 56.6274 28.1368C57.7179 28.6283 58.695 29.3403 59.497 30.228C60.3032 31.1203 60.9148 32.1707 61.2931 33.3122C61.6713 34.4537 61.8078 35.6615 61.6939 36.8586C61.5801 38.0558 61.2183 39.2162 60.6316 40.2659C60.045 41.3157 59.2463 42.2319 58.2863 42.9562C57.3264 43.6805 56.2262 44.1971 55.0557 44.4732C53.8853 44.7493 52.6702 44.7787 51.4877 44.5597C50.3077 44.3411 49.1859 43.8798 48.1934 43.2051C48.1358 43.1682 48.0687 43.1485 48.0002 43.1485C47.9317 43.1485 47.8647 43.1682 47.807 43.2051C46.8146 43.8798 45.6928 44.3411 44.5127 44.5597C43.3303 44.7787 42.1152 44.7493 40.9447 44.4732C39.7743 44.1971 38.6741 43.6805 37.7141 42.9562C36.7542 42.2319 35.9555 41.3157 35.3688 40.2659C34.7822 39.2162 34.4204 38.0558 34.3065 36.8586C34.1926 35.6615 34.3292 34.4537 34.7074 33.3122C35.0856 32.1707 35.6973 31.1203 36.5034 30.228C37.3055 29.3403 38.2825 28.6283 39.3731 28.1368C39.4515 28.0946 39.5141 28.028 39.5512 27.9469C40.2504 26.2853 41.4241 24.8667 42.9255 23.8686ZM48.0002 23.6691C46.4572 23.6691 44.9486 24.1248 43.6637 24.979C42.3787 25.8332 41.3746 27.0478 40.7774 28.4705L40.7724 28.4826L40.7722 28.4825C40.6089 28.8513 40.3225 29.152 39.9622 29.3331C39.9533 29.3376 39.9444 29.3418 39.9354 29.3459C39.0068 29.762 38.175 30.3668 37.4928 31.1218C36.8106 31.8769 36.2931 32.7656 35.9731 33.7315C35.653 34.6975 35.5375 35.7194 35.6339 36.7324C35.7302 37.7454 36.0363 38.7272 36.5327 39.6155C37.0291 40.5037 37.705 41.279 38.5172 41.8919C39.3295 42.5047 40.2604 42.9419 41.2508 43.1755C42.2412 43.4091 43.2693 43.434 44.2699 43.2487C45.2704 43.0633 46.2214 42.6718 47.0624 42.099L47.0718 42.0926L47.0719 42.0927C47.3476 41.9117 47.6703 41.8152 48.0002 41.8152C48.3301 41.8152 48.6528 41.9117 48.9286 42.0927L48.9381 42.0989L48.938 42.099C49.779 42.6718 50.73 43.0633 51.7306 43.2487C52.7311 43.434 53.7593 43.4091 54.7496 43.1755C55.74 42.9419 56.671 42.5047 57.4832 41.8919C58.2955 41.279 58.9713 40.5037 59.4677 39.6155C59.9641 38.7272 60.2702 37.7454 60.3666 36.7324C60.4629 35.7194 60.3474 34.6975 60.0274 33.7315C59.7074 32.7656 59.1898 31.8769 58.5076 31.1218C57.8255 30.3668 56.9937 29.762 56.0651 29.3459C56.0561 29.3418 56.0471 29.3376 56.0383 29.3331C55.6779 29.152 55.3916 28.8513 55.2282 28.4825L55.2229 28.4706L55.223 28.4705C54.6258 27.0478 53.6217 25.8332 52.3368 24.979C51.0518 24.1248 49.5432 23.6691 48.0002 23.6691Z" fill="#03A500"/>
</g>
<defs>
<filter id="filter0_d_1483_16723" x="0" y="0" width="96" height="96" filterUnits="userSpaceOnUse" color-interpolation-filters="sRGB">
<feFlood flood-opacity="0" result="BackgroundImageFix"/>
<feColorMatrix in="SourceAlpha" type="matrix" values="0 0 0 0 0 0 0 0 0 0 0 0 0 0 0 0 0 0 127 0" result="hardAlpha"/>
<feOffset dy="12"/>
<feGaussianBlur stdDeviation="12"/>
<feComposite in2="hardAlpha" operator="out"/>
<feColorMatrix type="matrix" values="0 0 0 0 0 0 0 0 0 0.283333 0 0 0 0 1 0 0 0 0.1 0"/>
<feBlend mode="normal" in2="BackgroundImageFix" result="effect1_dropShadow_1483_16723"/>
<feBlend mode="normal" in="SourceGraphic" in2="effect1_dropShadow_1483_16723" result="shape"/>
</filter>
</defs>
</svg>
