<svg width="16" height="16" viewBox="0 0 16 16" fill="none" xmlns="http://www.w3.org/2000/svg">
<g clip-path="url(#clip0_3320_10246)">
<path fill-rule="evenodd" clip-rule="evenodd" d="M7.99996 1.99984C4.68625 1.99984 1.99996 4.68613 1.99996 7.99984C1.99996 11.3135 4.68625 13.9998 7.99996 13.9998C11.3137 13.9998 14 11.3135 14 7.99984C14 4.68613 11.3137 1.99984 7.99996 1.99984ZM0.666626 7.99984C0.666626 3.94975 3.94987 0.666504 7.99996 0.666504C12.05 0.666504 15.3333 3.94975 15.3333 7.99984C15.3333 12.0499 12.05 15.3332 7.99996 15.3332C3.94987 15.3332 0.666626 12.0499 0.666626 7.99984ZM7.99996 4.6665C8.36815 4.6665 8.66663 4.96498 8.66663 5.33317V7.99984C8.66663 8.36803 8.36815 8.6665 7.99996 8.6665C7.63177 8.6665 7.33329 8.36803 7.33329 7.99984V5.33317C7.33329 4.96498 7.63177 4.6665 7.99996 4.6665ZM7.33329 10.6665C7.33329 10.2983 7.63177 9.99984 7.99996 9.99984H8.00663C8.37482 9.99984 8.67329 10.2983 8.67329 10.6665C8.67329 11.0347 8.37482 11.3332 8.00663 11.3332H7.99996C7.63177 11.3332 7.33329 11.0347 7.33329 10.6665Z" fill="#FF5151"/>
</g>
<defs>
<clipPath id="clip0_3320_10246">
<rect width="16" height="16" fill="white"/>
</clipPath>
</defs>
</svg>
