<svg width="14" height="13" viewBox="0 0 14 13" fill="none" xmlns="http://www.w3.org/2000/svg">
<path d="M4.5 12.5C5.05228 12.5 5.5 12.0523 5.5 11.5C5.5 10.9477 5.05228 10.5 4.5 10.5C3.94772 10.5 3.5 10.9477 3.5 11.5C3.5 12.0523 3.94772 12.5 4.5 12.5Z" fill="#373737"/>
<path d="M11.5 12.5C12.0523 12.5 12.5 12.0523 12.5 11.5C12.5 10.9477 12.0523 10.5 11.5 10.5C10.9477 10.5 10.5 10.9477 10.5 11.5C10.5 12.0523 10.9477 12.5 11.5 12.5Z" fill="#373737"/>
<path d="M13.3188 2.33437C13.2063 2.16875 13.0375 2.05313 12.8406 2.01562C12.7937 2.00625 12.7438 2 12.6938 2H3.18437L2.99375 0.9125C2.95313 0.675 2.74375 0.5 2.5 0.5H0.5C0.225 0.5 0 0.725 0 1C0 1.275 0.225 1.5 0.5 1.5H2.08125L3.50938 9.5875C3.55 9.825 3.75938 10 4.00313 10H12.0031C12.2781 10 12.5031 9.775 12.5031 9.5C12.5031 9.225 12.2781 9 12.0031 9H4.41875L4.24375 8H11.7969C12.1531 8 12.4625 7.74688 12.5312 7.39688L13.4312 2.89687C13.4687 2.7 13.4313 2.5 13.3188 2.33437ZM11.5906 7H4.06563L3.35938 3H12.3875L11.5906 7Z" fill="#373737"/>
</svg>
