<svg width="48" height="48" viewBox="0 0 48 48" fill="none" xmlns="http://www.w3.org/2000/svg">
<rect width="48" height="48" rx="24" fill="#F1F8FF"/>
<path fill-rule="evenodd" clip-rule="evenodd" d="M18.4101 14.7408C18.1608 15.0552 18 15.5343 18 16.125V22.875C18 23.0088 18.0486 23.0916 18.1092 23.1473C18.1792 23.2116 18.2783 23.25 18.375 23.25H18.3799L18.3849 23.2501C18.433 23.2507 18.4808 23.2417 18.5254 23.2236C18.57 23.2054 18.6105 23.1786 18.6445 23.1445C18.6786 23.1105 18.7054 23.07 18.7236 23.0254C18.7417 22.9808 18.7507 22.933 18.7501 22.8849L18.75 22.8799V15.75C18.75 15.3358 19.0858 15 19.5 15C19.9142 15 20.25 15.3358 20.25 15.75V22.8707C20.2525 23.1172 20.206 23.3618 20.1131 23.5903C20.0196 23.8204 19.8809 24.0295 19.7052 24.2052C19.5295 24.3809 19.3204 24.5196 19.0903 24.6131C18.8616 24.7061 18.6168 24.7526 18.37 24.75C17.4554 24.7474 16.5 24.0436 16.5 22.875V16.125C16.5 15.2817 16.7275 14.4484 17.2349 13.8087C17.758 13.1493 18.5384 12.75 19.5 12.75C20.455 12.75 21.2356 13.1368 21.7616 13.79C21.8776 13.934 21.979 14.088 22.0664 14.25H24.879C25.4756 14.2501 26.0476 14.4871 26.4695 14.9088L26.4695 14.9089L33.0912 21.5305C33.5129 21.9524 33.7499 22.5245 33.75 23.121V32.25C33.75 33.0456 33.4339 33.8087 32.8713 34.3713C32.3087 34.9339 31.5456 35.25 30.75 35.25H21C20.2044 35.25 19.4413 34.9339 18.8787 34.3713C18.3161 33.8087 18 33.0456 18 32.25V26.985C15.656 26.7949 14.25 24.8255 14.25 22.5998V18.75C14.25 18.3358 14.5858 18 15 18C15.4142 18 15.75 18.3358 15.75 18.75V22.5998C15.75 24.2901 16.8014 25.5 18.375 25.5C19.9485 25.5 21 24.2897 21 22.5998V16.0959C21 15.5059 20.8395 15.0365 20.5933 14.7308C20.3627 14.4444 20.0182 14.25 19.5 14.25C18.9883 14.25 18.6438 14.4463 18.4101 14.7408ZM19.5 26.8567V32.25C19.5 32.6478 19.658 33.0294 19.9393 33.3107C20.2206 33.592 20.6022 33.75 21 33.75H30.75C31.1478 33.75 31.5294 33.592 31.8107 33.3107C32.092 33.0294 32.25 32.6478 32.25 32.25V23.25H27C26.4033 23.25 25.831 23.0129 25.409 22.591C24.9871 22.169 24.75 21.5967 24.75 21V15.75H22.487C22.4957 15.8647 22.5 15.9802 22.5 16.0959V22.5998C22.5 24.5764 21.3907 26.3515 19.5 26.8567ZM26.25 16.8107L31.1893 21.75H27C26.8011 21.75 26.6103 21.671 26.4697 21.5303C26.329 21.3897 26.25 21.1989 26.25 21V16.8107Z" fill="#1492EF"/>
</svg>
