<svg width="16" height="16" viewBox="0 0 16 16" fill="none" xmlns="http://www.w3.org/2000/svg">
<path fill-rule="evenodd" clip-rule="evenodd" d="M8.00008 2.00002C4.68637 2.00002 2.00008 4.68631 2.00008 8.00002C2.00008 11.3137 4.68637 14 8.00008 14C11.3138 14 14.0001 11.3137 14.0001 8.00002C14.0001 4.68631 11.3138 2.00002 8.00008 2.00002ZM0.666748 8.00002C0.666748 3.94993 3.94999 0.666687 8.00008 0.666687C12.0502 0.666687 15.3334 3.94993 15.3334 8.00002C15.3334 12.0501 12.0502 15.3334 8.00008 15.3334C3.94999 15.3334 0.666748 12.0501 0.666748 8.00002ZM8.00008 4.66669C8.36827 4.66669 8.66675 4.96516 8.66675 5.33335V8.00002C8.66675 8.36821 8.36827 8.66669 8.00008 8.66669C7.63189 8.66669 7.33341 8.36821 7.33341 8.00002V5.33335C7.33341 4.96516 7.63189 4.66669 8.00008 4.66669ZM7.33341 10.6667C7.33341 10.2985 7.63189 10 8.00008 10H8.00675C8.37494 10 8.67341 10.2985 8.67341 10.6667C8.67341 11.0349 8.37494 11.3334 8.00675 11.3334H8.00008C7.63189 11.3334 7.33341 11.0349 7.33341 10.6667Z" fill="#7C7C7C"/>
</svg>
