<svg width="28" height="27" viewBox="0 0 28 27" fill="none" xmlns="http://www.w3.org/2000/svg">
<path d="M17.2283 8.16533C16.5711 8.00473 15.8878 7.98103 15.221 8.09572C14.5542 8.21041 13.9181 8.46103 13.3523 8.832C13.3106 8.85971 13.2754 8.89621 13.2492 8.93894C13.223 8.98167 13.2065 9.0296 13.2008 9.07938C13.1951 9.12917 13.2003 9.1796 13.2161 9.22715C13.2319 9.2747 13.2579 9.31822 13.2923 9.35467C13.3647 9.43569 13.4635 9.48845 13.5712 9.50358C13.6788 9.51871 13.7883 9.49524 13.8803 9.43734C14.3454 9.13221 14.8684 8.9261 15.4166 8.83182C15.9649 8.73754 16.5266 8.75712 17.067 8.88933C18.0161 9.05231 18.8625 9.58345 19.4221 10.3672C19.9816 11.151 20.2091 12.124 20.055 13.0747L20.019 13.2333C19.9758 13.4219 19.9169 13.6066 19.843 13.7853C19.8048 13.8902 19.8068 14.0055 19.8483 14.1091C19.8899 14.2127 19.9682 14.2972 20.0683 14.3467C20.1138 14.3731 20.1643 14.3897 20.2166 14.3955C20.2689 14.4012 20.3218 14.3961 20.372 14.3803C20.4222 14.3644 20.4685 14.3384 20.5081 14.3037C20.5476 14.2689 20.5795 14.2264 20.6016 14.1787C20.72 13.9022 20.8067 13.6133 20.8603 13.3173L20.8723 13.2653C21.0596 12.1066 20.7819 10.9207 20.0995 9.96569C19.4171 9.01063 18.3852 8.36361 17.2283 8.16533ZM21.2283 25.6187H20.0003L21.4176 24.0733C21.5734 23.8777 21.6593 23.6355 21.6614 23.3854C21.6636 23.1353 21.582 22.8917 21.4296 22.6933C21.2664 22.4894 21.0582 22.326 20.8214 22.2159C20.5845 22.1058 20.3254 22.052 20.0643 22.0587C19.655 22.0183 19.2461 22.1392 18.9247 22.3957C18.6032 22.6522 18.3945 23.024 18.343 23.432C18.3715 23.5587 18.4423 23.6719 18.5437 23.7529C18.6451 23.834 18.7711 23.8782 18.901 23.8782C19.0308 23.8782 19.1568 23.834 19.2582 23.7529C19.3596 23.6719 19.4304 23.5587 19.459 23.432C19.4783 23.2873 19.5534 23.1559 19.6682 23.0657C19.783 22.9756 19.9285 22.9338 20.0736 22.9493C20.1495 22.9481 20.2246 22.9648 20.2927 22.9982C20.3609 23.0316 20.4201 23.0806 20.4656 23.1413C20.513 23.2029 20.5408 23.2772 20.5453 23.3548C20.5498 23.4323 20.5309 23.5094 20.491 23.576L18.4496 25.8013C18.3903 25.8619 18.3534 25.9408 18.3449 26.0252C18.3365 26.1095 18.3569 26.1942 18.403 26.2653C18.4595 26.3436 18.5345 26.4067 18.6212 26.449C18.708 26.4913 18.8038 26.5116 18.9003 26.508H21.227C21.2937 26.5232 21.3631 26.5231 21.4298 26.5078C21.4965 26.4925 21.559 26.4624 21.6125 26.4197C21.666 26.377 21.7092 26.3228 21.7389 26.2611C21.7686 26.1994 21.784 26.1318 21.784 26.0633C21.784 25.9949 21.7686 25.9273 21.7389 25.8656C21.7092 25.8039 21.666 25.7497 21.6125 25.707C21.559 25.6642 21.4965 25.6341 21.4298 25.6188C21.3631 25.6036 21.2951 25.6035 21.2283 25.6187ZM9.81897 23.3333C9.4969 23.4572 9.15471 23.5205 8.80964 23.52C8.26685 23.574 7.72442 23.414 7.29783 23.0741C6.87124 22.7342 6.59418 22.2411 6.52563 21.7C6.59418 21.1589 6.87124 20.6658 7.29783 20.3259C7.72442 19.986 8.26685 19.826 8.80964 19.88C9.15087 19.8795 9.48932 19.9414 9.8083 20.0627C9.93761 20.1167 10.0813 20.1259 10.2164 20.0886C10.3515 20.0514 10.4703 19.97 10.5536 19.8573C10.5839 19.8026 10.6012 19.7416 10.6042 19.6791C10.6072 19.6166 10.5959 19.5542 10.571 19.4968C10.5462 19.4394 10.5085 19.3884 10.4609 19.3478C10.4132 19.3072 10.3569 19.2781 10.2963 19.2627C9.82133 19.0832 9.31736 18.9928 8.80964 18.996C8.00182 18.9166 7.19487 19.1551 6.56006 19.661C5.92526 20.1669 5.51258 20.9002 5.40964 21.7053C5.51226 22.5107 5.9248 23.2444 6.55965 23.7505C7.19449 24.2567 8.00162 24.4954 8.80964 24.416C9.32402 24.4171 9.83409 24.3221 10.3136 24.136C10.3743 24.1204 10.4305 24.091 10.478 24.0502C10.5254 24.0093 10.5629 23.9581 10.5873 23.9005C10.6118 23.8429 10.6227 23.7804 10.6192 23.7179C10.6157 23.6554 10.5978 23.5945 10.567 23.54C10.4836 23.4265 10.3645 23.3444 10.2288 23.307C10.0931 23.2695 9.94874 23.2788 9.81897 23.3333ZM14.287 18.9867C13.4792 18.9066 12.672 19.1449 12.0373 19.6509C11.4025 20.1569 10.9903 20.8907 10.8883 21.696C10.9909 22.5011 11.4033 23.2346 12.0378 23.7407C12.6724 24.2468 13.4792 24.4857 14.287 24.4067C15.095 24.486 15.9021 24.2473 16.537 23.7412C17.1718 23.2351 17.5843 22.5014 17.687 21.696C17.584 20.8909 17.1713 20.1575 16.5365 19.6517C15.9017 19.1458 15.0948 18.9073 14.287 18.9867ZM14.287 23.52C13.7431 23.5747 13.1995 23.4145 12.7722 23.0736C12.3449 22.7328 12.0679 22.2384 12.0003 21.696C12.0688 21.1551 12.3457 20.6623 12.772 20.3224C13.1983 19.9825 13.7404 19.8224 14.283 19.876C14.8258 19.822 15.3682 19.982 15.7948 20.3219C16.2214 20.6618 16.4984 21.1549 16.567 21.696C16.4984 22.2364 16.2219 22.7288 15.7962 23.0686C15.3705 23.4084 14.8291 23.5689 14.287 23.516V23.52ZM8.91763 17.7707C9.03136 17.7644 9.13837 17.7149 9.21667 17.6322C9.29497 17.5495 9.33861 17.4399 9.33861 17.326C9.33861 17.2121 9.29497 17.1025 9.21667 17.0198C9.13837 16.9371 9.03136 16.8876 8.91763 16.8813H5.63497C4.67618 16.8824 3.74769 16.5455 3.01275 15.9297C2.2778 15.314 1.78344 14.4589 1.61658 13.5147C1.44972 12.5705 1.62104 11.5978 2.10042 10.7674C2.5798 9.93706 3.33655 9.30228 4.23763 8.97467C4.34391 8.93459 4.43079 8.8553 4.4804 8.75312C4.53 8.65094 4.53855 8.53363 4.5043 8.42533C4.28141 7.75526 4.19457 7.04742 4.24887 6.34334C4.30318 5.63926 4.49753 4.95311 4.82054 4.32514C5.14354 3.69717 5.5887 3.14003 6.12988 2.68638C6.67107 2.23274 7.2974 1.89173 7.97214 1.68336C8.64687 1.475 9.35641 1.40346 10.0592 1.47296C10.7619 1.54246 11.4437 1.75159 12.0645 2.08808C12.6854 2.42457 13.2328 2.88166 13.6746 3.43252C14.1165 3.98338 14.4439 4.61693 14.6376 5.296C14.663 5.37484 14.7094 5.44522 14.772 5.49952C14.8345 5.55382 14.9107 5.58995 14.9923 5.604C15.074 5.61768 15.1578 5.60804 15.2342 5.5762C15.3106 5.54436 15.3765 5.49161 15.4243 5.424C15.837 4.85062 16.3798 4.38331 17.0082 4.06044C17.6365 3.73757 18.3325 3.56835 19.039 3.56667H19.0683C19.6636 3.56532 20.2528 3.68588 20.7997 3.92092C21.3466 4.15597 21.8396 4.50052 22.2483 4.93333C22.6656 5.36571 22.9908 5.87829 23.2041 6.44002C23.4175 7.00176 23.5146 7.60096 23.4896 8.20133C23.4871 8.31738 23.53 8.42982 23.6092 8.5147C23.6884 8.59957 23.7976 8.65018 23.9135 8.65575C24.0295 8.66131 24.143 8.62138 24.2299 8.54448C24.3169 8.46757 24.3703 8.35975 24.379 8.244C24.4096 7.52286 24.2935 6.80301 24.0377 6.12806C23.7819 5.45311 23.3918 4.8371 22.891 4.31734C22.4005 3.79896 21.8095 3.38596 21.1541 3.10354C20.4987 2.82111 19.7926 2.67519 19.079 2.67467C18.3597 2.67303 17.6475 2.81581 16.9844 3.09454C16.3214 3.37328 15.721 3.78229 15.219 4.29734C14.6336 3.00876 13.6246 1.95948 12.36 1.32409C11.0953 0.688713 9.65121 0.505546 8.26796 0.805072C6.88472 1.1046 5.64575 1.86876 4.75721 2.97039C3.86868 4.07202 3.38417 5.4447 3.3843 6.86C3.38471 7.34355 3.44109 7.82542 3.5523 8.296C2.5239 8.77004 1.68842 9.58136 1.18443 10.5954C0.680434 11.6095 0.538199 12.7653 0.781312 13.8713C1.02443 14.9773 1.63828 15.967 2.52108 16.6762C3.40387 17.3854 4.50257 17.7716 5.63497 17.7707H8.91763ZM25.5163 8.96267C25.4243 8.89406 25.3094 8.8636 25.1955 8.87764C25.0817 8.89169 24.9776 8.94914 24.905 9.03803C24.8325 9.12692 24.797 9.24039 24.8061 9.35477C24.8151 9.46916 24.868 9.57563 24.9536 9.652C25.6031 10.1849 26.0721 10.9055 26.2965 11.7151C26.5208 12.5247 26.4896 13.3839 26.2071 14.1751C25.9246 14.9663 25.4046 15.6509 24.7182 16.1353C24.0317 16.6197 23.2124 16.8803 22.3723 16.8813H10.7403C10.6266 16.8876 10.5196 16.9371 10.4413 17.0198C10.363 17.1025 10.3193 17.2121 10.3193 17.326C10.3193 17.4399 10.363 17.5495 10.4413 17.6322C10.5196 17.7149 10.6266 17.7644 10.7403 17.7707H22.3723C23.3961 17.7698 24.3946 17.4525 25.2311 16.8623C26.0677 16.2722 26.7014 15.4379 27.0456 14.4737C27.3898 13.5095 27.4276 12.4625 27.1538 11.476C26.88 10.4894 26.3081 9.61164 25.5163 8.96267Z" fill="#E8B500"/>
</svg>
