<svg width="16" height="16" viewBox="0 0 16 16" fill="none" xmlns="http://www.w3.org/2000/svg">
<path fill-rule="evenodd" clip-rule="evenodd" d="M13.3333 1.91912C13.135 1.91912 12.9449 1.99788 12.8047 2.13807L6.60194 8.34083L6.24954 9.75042L7.65913 9.39802L13.8619 3.19526C14.0021 3.05507 14.0808 2.86493 14.0808 2.66667C14.0808 2.4684 14.0021 2.27826 13.8619 2.13807C13.7217 1.99788 13.5316 1.91912 13.3333 1.91912ZM11.8619 1.19526C12.2521 0.80502 12.7814 0.585785 13.3333 0.585785C13.8852 0.585785 14.4145 0.80502 14.8047 1.19526C15.1949 1.5855 15.4142 2.11478 15.4142 2.66667C15.4142 3.21855 15.1949 3.74783 14.8047 4.13807L8.47136 10.4714C8.38592 10.5568 8.27887 10.6175 8.16165 10.6468L5.49498 11.3134C5.2678 11.3702 5.02748 11.3037 4.86189 11.1381C4.6963 10.9725 4.62973 10.7322 4.68653 10.505L5.3532 7.83831C5.3825 7.72109 5.44312 7.61403 5.52855 7.52859L11.8619 1.19526ZM1.25241 2.58578C1.62749 2.21071 2.13619 2 2.66663 2H7.33329C7.70148 2 7.99996 2.29848 7.99996 2.66667C7.99996 3.03485 7.70148 3.33333 7.33329 3.33333H2.66663C2.48981 3.33333 2.32025 3.40357 2.19522 3.52859C2.0702 3.65362 1.99996 3.82319 1.99996 4V13.3333C1.99996 13.5101 2.0702 13.6797 2.19522 13.8047C2.32025 13.9298 2.48982 14 2.66663 14H12C12.1768 14 12.3463 13.9298 12.4714 13.8047C12.5964 13.6797 12.6666 13.5101 12.6666 13.3333V8.66667C12.6666 8.29848 12.9651 8 13.3333 8C13.7015 8 14 8.29848 14 8.66667V13.3333C14 13.8638 13.7892 14.3725 13.4142 14.7475C13.0391 15.1226 12.5304 15.3333 12 15.3333H2.66663C2.13619 15.3333 1.62748 15.1226 1.25241 14.7475C0.87734 14.3725 0.666626 13.8638 0.666626 13.3333V4C0.666626 3.46957 0.87734 2.96086 1.25241 2.58578Z" fill="#1492EF"/>
</svg>
