<svg width="20" height="20" viewBox="0 0 20 20" fill="none" xmlns="http://www.w3.org/2000/svg">
<g clip-path="url(#clip0_3537_2455)">
<path fill-rule="evenodd" clip-rule="evenodd" d="M9.99992 2.50004C5.85778 2.50004 2.49992 5.8579 2.49992 10C2.49992 14.1422 5.85778 17.5 9.99992 17.5C14.1421 17.5 17.4999 14.1422 17.4999 10C17.4999 5.8579 14.1421 2.50004 9.99992 2.50004ZM0.833252 10C0.833252 4.93743 4.93731 0.833374 9.99992 0.833374C15.0625 0.833374 19.1666 4.93743 19.1666 10C19.1666 15.0626 15.0625 19.1667 9.99992 19.1667C4.93731 19.1667 0.833252 15.0626 0.833252 10ZM10.215 6.68697C9.82708 6.62043 9.42812 6.69333 9.08878 6.89276C8.74945 7.09219 8.49164 7.40528 8.36103 7.77658C8.2083 8.21073 7.73254 8.43888 7.29838 8.28615C6.86422 8.13343 6.63608 7.65766 6.78881 7.2235C7.05003 6.48091 7.56564 5.85473 8.24431 5.45587C8.92298 5.05701 9.72091 4.91121 10.4968 5.0443C11.2726 5.17738 11.9764 5.58075 12.4833 6.18298C12.9902 6.78508 13.2676 7.54711 13.2666 8.33413C13.2662 9.60943 12.3207 10.4516 11.6455 10.9017C11.2825 11.1438 10.9254 11.3217 10.6623 11.4386C10.5296 11.4976 10.4179 11.5424 10.3373 11.573C10.297 11.5884 10.2643 11.6003 10.2405 11.6088L10.2116 11.6189L10.2023 11.6221L10.1991 11.6232L10.1978 11.6236C10.1976 11.6237 10.1968 11.6239 9.93325 10.8334L10.1968 11.6239C9.76015 11.7695 9.28822 11.5335 9.14268 11.0969C8.99719 10.6604 9.23295 10.1887 9.66929 10.0429L9.68215 10.0384C9.69497 10.0339 9.71598 10.0262 9.74401 10.0156C9.8002 9.99416 9.88376 9.9608 9.98543 9.91561C10.1911 9.82419 10.459 9.68965 10.721 9.515C11.2957 9.13189 11.5999 8.72432 11.5999 8.33337L11.5999 8.33213C11.6005 7.93853 11.4618 7.55743 11.2083 7.25631C10.9548 6.9552 10.603 6.75351 10.215 6.68697ZM9.16658 14.1667C9.16658 13.7065 9.53968 13.3334 9.99992 13.3334H10.0083C10.4685 13.3334 10.8416 13.7065 10.8416 14.1667C10.8416 14.6269 10.4685 15 10.0083 15H9.99992C9.53968 15 9.16658 14.6269 9.16658 14.1667Z" fill="white"/>
</g>
<defs>
<clipPath id="clip0_3537_2455">
<rect width="20" height="20" fill="white"/>
</clipPath>
</defs>
</svg>
