<svg width="20" height="20" viewBox="0 0 20 20" fill="none" xmlns="http://www.w3.org/2000/svg">
<path fill-rule="evenodd" clip-rule="evenodd" d="M9.99998 2.50004C5.85784 2.50004 2.49998 5.8579 2.49998 10C2.49998 14.1422 5.85784 17.5 9.99998 17.5C14.1421 17.5 17.5 14.1422 17.5 10C17.5 5.8579 14.1421 2.50004 9.99998 2.50004ZM0.833313 10C0.833313 4.93743 4.93737 0.833374 9.99998 0.833374C15.0626 0.833374 19.1666 4.93743 19.1666 10C19.1666 15.0626 15.0626 19.1667 9.99998 19.1667C4.93737 19.1667 0.833313 15.0626 0.833313 10ZM10.2151 6.68697C9.82714 6.62043 9.42818 6.69333 9.08884 6.89276C8.74951 7.09219 8.4917 7.40528 8.36109 7.77658C8.20836 8.21073 7.7326 8.43888 7.29844 8.28615C6.86428 8.13343 6.63614 7.65766 6.78887 7.2235C7.05009 6.48091 7.5657 5.85473 8.24437 5.45587C8.92304 5.05701 9.72097 4.91121 10.4968 5.0443C11.2727 5.17738 11.9764 5.58075 12.4834 6.18298C12.9902 6.78508 13.2677 7.54711 13.2666 8.33413C13.2663 9.60943 12.3208 10.4516 11.6456 10.9017C11.2825 11.1438 10.9254 11.3217 10.6624 11.4386C10.5297 11.4976 10.4179 11.5424 10.3374 11.573C10.2971 11.5884 10.2644 11.6003 10.2406 11.6088L10.2116 11.6189L10.2024 11.6221L10.1992 11.6232L10.1979 11.6236C10.1976 11.6237 10.1968 11.6239 9.93331 10.8334L10.1968 11.6239C9.76022 11.7695 9.28828 11.5335 9.14274 11.0969C8.99725 10.6604 9.23301 10.1887 9.66935 10.0429L9.68221 10.0384C9.69503 10.0339 9.71604 10.0262 9.74407 10.0156C9.80026 9.99416 9.88382 9.9608 9.98549 9.91561C10.1912 9.82419 10.4591 9.68965 10.7211 9.515C11.2957 9.13189 11.6 8.72432 11.6 8.33337L11.6 8.33213C11.6006 7.93853 11.4618 7.55743 11.2084 7.25631C10.9549 6.9552 10.603 6.75351 10.2151 6.68697ZM9.16665 14.1667C9.16665 13.7065 9.53974 13.3334 9.99998 13.3334H10.0083C10.4685 13.3334 10.8416 13.7065 10.8416 14.1667C10.8416 14.6269 10.4685 15 10.0083 15H9.99998C9.53974 15 9.16665 14.6269 9.16665 14.1667Z" fill="#1492EF"/>
</svg>
