<svg width="16" height="16" viewBox="0 0 16 16" fill="none" xmlns="http://www.w3.org/2000/svg">
<path fill-rule="evenodd" clip-rule="evenodd" d="M7.99992 1.99999C7.29268 1.99999 6.6144 2.28094 6.1143 2.78104C5.6142 3.28114 5.33325 3.95941 5.33325 4.66666V6.66666H10.6666V4.66666C10.6666 3.95941 10.3856 3.28114 9.88554 2.78104C9.38544 2.28094 8.70716 1.99999 7.99992 1.99999ZM11.9999 6.66666V4.66666C11.9999 3.60579 11.5785 2.58837 10.8283 1.83823C10.0782 1.08808 9.06078 0.666656 7.99992 0.666656C6.93905 0.666656 5.92164 1.08808 5.17149 1.83823C4.42135 2.58837 3.99992 3.60579 3.99992 4.66666V6.66666H3.33325C2.22868 6.66666 1.33325 7.56209 1.33325 8.66666V13.3333C1.33325 14.4379 2.22868 15.3333 3.33325 15.3333H12.6666C13.7712 15.3333 14.6666 14.4379 14.6666 13.3333V8.66666C14.6666 7.56209 13.7712 6.66666 12.6666 6.66666H11.9999ZM3.33325 7.99999C2.96506 7.99999 2.66659 8.29847 2.66659 8.66666V13.3333C2.66659 13.7015 2.96506 14 3.33325 14H12.6666C13.0348 14 13.3333 13.7015 13.3333 13.3333V8.66666C13.3333 8.29847 13.0348 7.99999 12.6666 7.99999H3.33325Z" fill="#1D2029"/>
</svg>
