<svg width="140" height="14" viewBox="0 0 140 14" fill="none" xmlns="http://www.w3.org/2000/svg">
<path d="M0.494 13V0.399999H3.41V13H0.494ZM6.04025 13V0.399999H8.45225L13.8163 9.292H12.5383L17.8123 0.399999H20.2063L20.2423 13H17.5063L17.4883 4.594H17.9923L13.7803 11.668H12.4663L8.16425 4.594H8.77625V13H6.04025ZM22.8717 13V0.399999H28.3257C29.4537 0.399999 30.4257 0.585999 31.2417 0.957999C32.0577 1.318 32.6877 1.84 33.1317 2.524C33.5757 3.208 33.7977 4.024 33.7977 4.972C33.7977 5.908 33.5757 6.718 33.1317 7.402C32.6877 8.086 32.0577 8.614 31.2417 8.986C30.4257 9.346 29.4537 9.526 28.3257 9.526H24.4917L25.7877 8.212V13H22.8717ZM25.7877 8.536L24.4917 7.15H28.1637C29.0637 7.15 29.7357 6.958 30.1797 6.574C30.6237 6.19 30.8457 5.656 30.8457 4.972C30.8457 4.276 30.6237 3.736 30.1797 3.352C29.7357 2.968 29.0637 2.776 28.1637 2.776H24.4917L25.7877 1.39V8.536ZM33.2307 13L38.8467 0.399999H41.7267L47.3607 13H44.3007L39.6927 1.876H40.8447L36.2187 13H33.2307ZM36.0387 10.3L36.8127 8.086H43.2927L44.0847 10.3H36.0387ZM50.9179 10.12L50.7559 6.754L56.7859 0.399999H60.0259L54.5899 6.25L52.9699 7.978L50.9179 10.12ZM48.3079 13V0.399999H51.2059V13H48.3079ZM56.9299 13L52.4479 7.51L54.3559 5.44L60.3319 13H56.9299ZM63.0032 13V2.776H58.9712V0.399999H69.9512V2.776H65.9192V13H63.0032ZM73.8422 5.476H79.9082V7.744H73.8422V5.476ZM74.0582 10.66H80.9162V13H71.1602V0.399999H80.6822V2.74H74.0582V10.66ZM82.8763 13V0.399999H88.3303C89.4583 0.399999 90.4303 0.585999 91.2463 0.957999C92.0623 1.318 92.6923 1.84 93.1363 2.524C93.5803 3.208 93.8023 4.024 93.8023 4.972C93.8023 5.908 93.5803 6.718 93.1363 7.402C92.6923 8.074 92.0623 8.59 91.2463 8.95C90.4303 9.31 89.4583 9.49 88.3303 9.49H84.4963L85.7923 8.212V13H82.8763ZM90.8863 13L87.7363 8.428H90.8503L94.0363 13H90.8863ZM85.7923 8.536L84.4963 7.168H88.1683C89.0683 7.168 89.7403 6.976 90.1843 6.592C90.6283 6.196 90.8503 5.656 90.8503 4.972C90.8503 4.276 90.6283 3.736 90.1843 3.352C89.7403 2.968 89.0683 2.776 88.1683 2.776H84.4963L85.7923 1.39V8.536Z" fill="#7C7C7C"/>
<path d="M100.49 13V0.399999H105.944C107.072 0.399999 108.044 0.585999 108.86 0.957999C109.676 1.318 110.306 1.84 110.75 2.524C111.194 3.208 111.416 4.024 111.416 4.972C111.416 5.908 111.194 6.718 110.75 7.402C110.306 8.086 109.676 8.614 108.86 8.986C108.044 9.346 107.072 9.526 105.944 9.526H102.11L103.406 8.212V13H100.49ZM103.406 8.536L102.11 7.15H105.782C106.682 7.15 107.354 6.958 107.798 6.574C108.242 6.19 108.464 5.656 108.464 4.972C108.464 4.276 108.242 3.736 107.798 3.352C107.354 2.968 106.682 2.776 105.782 2.776H102.11L103.406 1.39V8.536ZM113.138 13V0.399999H118.592C119.72 0.399999 120.692 0.585999 121.508 0.957999C122.324 1.318 122.954 1.84 123.398 2.524C123.842 3.208 124.064 4.024 124.064 4.972C124.064 5.908 123.842 6.718 123.398 7.402C122.954 8.074 122.324 8.59 121.508 8.95C120.692 9.31 119.72 9.49 118.592 9.49H114.758L116.054 8.212V13H113.138ZM121.148 13L117.998 8.428H121.112L124.298 13H121.148ZM116.054 8.536L114.758 7.168H118.43C119.33 7.168 120.002 6.976 120.446 6.592C120.89 6.196 121.112 5.656 121.112 4.972C121.112 4.276 120.89 3.736 120.446 3.352C120.002 2.968 119.33 2.776 118.43 2.776H114.758L116.054 1.39V8.536ZM132.134 13.216C131.138 13.216 130.214 13.054 129.362 12.73C128.522 12.406 127.79 11.95 127.166 11.362C126.554 10.774 126.074 10.084 125.726 9.292C125.39 8.5 125.222 7.636 125.222 6.7C125.222 5.764 125.39 4.9 125.726 4.108C126.074 3.316 126.56 2.626 127.184 2.038C127.808 1.45 128.54 0.993999 129.38 0.669999C130.22 0.345999 131.132 0.184 132.116 0.184C133.112 0.184 134.024 0.345999 134.852 0.669999C135.692 0.993999 136.418 1.45 137.03 2.038C137.654 2.626 138.14 3.316 138.488 4.108C138.836 4.888 139.01 5.752 139.01 6.7C139.01 7.636 138.836 8.506 138.488 9.31C138.14 10.102 137.654 10.792 137.03 11.38C136.418 11.956 135.692 12.406 134.852 12.73C134.024 13.054 133.118 13.216 132.134 13.216ZM132.116 10.732C132.68 10.732 133.196 10.636 133.664 10.444C134.144 10.252 134.564 9.976 134.924 9.616C135.284 9.256 135.56 8.83 135.752 8.338C135.956 7.846 136.058 7.3 136.058 6.7C136.058 6.1 135.956 5.554 135.752 5.062C135.56 4.57 135.284 4.144 134.924 3.784C134.576 3.424 134.162 3.148 133.682 2.956C133.202 2.764 132.68 2.668 132.116 2.668C131.552 2.668 131.03 2.764 130.55 2.956C130.082 3.148 129.668 3.424 129.308 3.784C128.948 4.144 128.666 4.57 128.462 5.062C128.27 5.554 128.174 6.1 128.174 6.7C128.174 7.288 128.27 7.834 128.462 8.338C128.666 8.83 128.942 9.256 129.29 9.616C129.65 9.976 130.07 10.252 130.55 10.444C131.03 10.636 131.552 10.732 132.116 10.732Z" fill="#1492EF"/>
</svg>
