<svg width="290" height="290" viewBox="0 0 290 290" fill="none" xmlns="http://www.w3.org/2000/svg">
<path d="M264 145C145 145 210.722 145 145 145C79.2781 145 145 145 26 145C26 210.722 79.2781 264 145 264C210.722 264 264 210.722 264 145Z" fill="#E4E4E4"/>
<path d="M264 146C145 146 210.722 146 145 146C79.2781 146 145 146 26 146C26 80.2781 79.2781 27 145 27C210.722 27 264 80.2781 264 146Z" fill="#E4E4E4"/>
<path d="M145.082 4.50002L145.081 4.50002C117.293 4.48393 90.1241 12.7084 67.0101 28.1333C43.896 43.5583 25.8751 65.491 15.2261 91.1578C4.57716 116.825 1.77844 145.073 7.18388 172.33C12.5893 199.588 25.9561 224.63 45.594 244.291C65.2319 263.952 90.2589 277.347 117.51 282.784C144.761 288.221 173.013 285.455 198.692 274.836C224.371 264.217 246.325 246.221 261.776 223.125C277.228 200.029 285.484 172.87 285.5 145.081V145.081C285.478 107.831 270.683 72.1111 244.359 45.7564C218.034 19.4017 182.331 4.56466 145.082 4.50002ZM145.08 281.797C118.018 281.813 91.5583 273.802 69.0499 258.776C46.5413 243.751 28.9952 222.387 18.6313 197.387C8.26742 172.388 5.55157 144.876 10.8273 118.332C16.1031 91.7884 29.1335 67.4061 48.2698 48.2697C67.4061 29.1334 91.7884 16.1031 118.332 10.8273C144.876 5.55156 172.388 8.26741 197.387 18.6313C222.387 28.9952 243.751 46.5413 258.776 69.0499C273.802 91.5583 281.813 118.018 281.797 145.08C281.733 181.32 267.309 216.057 241.683 241.683C216.057 267.309 181.32 281.733 145.08 281.797Z" fill="#E4E4E4" stroke="#E4E4E4"/>
<path d="M27.2565 143.75C27.9269 79.2943 80.3856 27.25 145 27.25C209.614 27.25 262.073 79.2943 262.743 143.75H262.614H261.927H261.245H260.566H259.892H259.222H258.556H257.894H257.236H256.583H255.933H255.288H254.646H254.009H253.375H252.746H252.12H251.499H250.881H250.268H249.658H249.053H248.451H247.853H247.259H246.669H246.082H245.5H244.921H244.346H243.775H243.208H242.644H242.084H241.528H240.976H240.427H239.882H239.341H238.803H238.269H237.739H237.212H236.689H236.17H235.654H235.141H234.633H234.127H233.625H233.127H232.632H232.141H231.653H231.169H230.688H230.21H229.736H229.266H228.798H228.334H227.874H227.416H226.962H226.512H226.064H225.62H225.179H224.742H224.308H223.876H223.449H223.024H222.602H222.184H221.769H221.357H220.948H220.542H220.139H219.74H219.343H218.95H218.559H218.172H217.787H217.406H217.028H216.652H216.28H215.91H215.543H215.18H214.819H214.461H214.106H213.753H213.404H213.058H212.714H212.373H212.035H211.699H211.367H211.037H210.71H210.385H210.064H209.745H209.428H209.114H208.803H208.495H208.189H207.886H207.585H207.287H206.992H206.699H206.408H206.121H205.835H205.552H205.272H204.994H204.718H204.445H204.175H203.906H203.64H203.377H203.116H202.857H202.601H202.346H202.095H201.845H201.598H201.353H201.11H200.87H200.631H200.395H200.161H199.93H199.7H199.473H199.247H199.024H198.803H198.584H198.368H198.153H197.94H197.729H197.521H197.314H197.109H196.907H196.706H196.507H196.31H196.115H195.922H195.731H195.542H195.355H195.169H194.986H194.804H194.624H194.445H194.269H194.094H193.921H193.75H193.581H193.413H193.247H193.083H192.92H192.759H192.6H192.442H192.286H192.131H191.978H191.827H191.677H191.529H191.382H191.236H191.093H190.95H190.81H190.67H190.532H190.396H190.261H190.127H189.995H189.864H189.735H189.606H189.48H189.354H189.23H189.107H188.985H188.865H188.746H188.628H188.511H188.395H188.281H188.168H188.056H187.945H187.835H187.727H187.619H187.513H187.407H187.303H187.2H187.098H186.997H186.897H186.797H186.699H186.602H186.506H186.41H186.316H186.222H186.13H186.038H185.947H185.857H185.768H185.68H185.592H185.505H185.419H185.334H185.25H185.166H185.083H185H184.919H184.838H184.758H184.678H184.599H184.521H184.443H184.366H184.289H184.213H184.138H184.063H183.989H183.915H183.841H183.768H183.696H183.624H183.552H183.481H183.411H183.34H183.27H183.201H183.132H183.063H182.994H182.926H182.858H182.791H182.723H182.656H182.589H182.523H182.456H182.39H182.324H182.258H182.193H182.127H182.062H181.996H181.931H181.866H181.801H181.736H181.671H181.606H181.541H181.476H181.411H181.346H181.282H181.216H181.151H181.086H181.021H180.956H180.89H180.824H180.759H180.693H180.626H180.56H180.494H180.427H180.36H180.292H180.225H180.157H180.089H180.021H179.952H179.883H179.813H179.743H179.673H179.603H179.532H179.46H179.388H179.316H179.243H179.17H179.096H179.022H178.947H178.872H178.796H178.72H178.643H178.565H178.487H178.408H178.329H178.249H178.168H178.087H178.005H177.922H177.838H177.754H177.669H177.583H177.497H177.409H177.321H177.232H177.142H177.052H176.96H176.868H176.775H176.68H176.585H176.489H176.392H176.294H176.196H176.096H175.995H175.893H175.79H175.686H175.581H175.475H175.368H175.259H175.15H175.039H174.928H174.815H174.701H174.586H174.469H174.352H174.233H174.113H173.992H173.869H173.745H173.62H173.493H173.366H173.236H173.106H172.974H172.841H172.706H172.57H172.433H172.294H172.153H172.011H171.868H171.723H171.577H171.429H171.28H171.129H170.976H170.822H170.666H170.509H170.35H170.189H170.027H169.863H169.698H169.53H169.362H169.191H169.018H168.844H168.668H168.491H168.311H168.13H167.947H167.762H167.575H167.386H167.195H167.003H166.809H166.612H166.414H166.214H166.012H165.808H165.601H165.393H165.183H164.971H164.757H164.541H164.322H164.102H163.879H163.655H163.428H163.199H162.968H162.734H162.499H162.261H162.021H161.779H161.535H161.288H161.039H160.788H160.535H160.279H160.021H159.76H159.498H159.232H158.965H158.695H158.422H158.148H157.87H157.59H157.308H157.024H156.736H156.447H156.154H155.86H155.562H155.262H154.96H154.655H154.347H154.037H153.724H153.408H153.09H152.769H152.445H152.119H151.79H151.458H151.123H150.786H150.446H150.103H149.757H149.409H149.057H148.703H148.346H147.986H147.623H147.257H146.888H146.516H146.142H145.764H145.384H145H144.616H144.236H143.858H143.484H143.112H142.743H142.377H142.014H141.654H141.297H140.943H140.591H140.243H139.897H139.554H139.214H138.877H138.542H138.21H137.881H137.555H137.231H136.91H136.592H136.276H135.963H135.653H135.345H135.04H134.738H134.438H134.14H133.846H133.553H133.264H132.976H132.692H132.41H132.13H131.852H131.578H131.305H131.035H130.768H130.502H130.24H129.979H129.721H129.465H129.212H128.961H128.712H128.465H128.221H127.979H127.739H127.501H127.266H127.032H126.801H126.572H126.345H126.121H125.898H125.678H125.459H125.243H125.029H124.817H124.607H124.399H124.192H123.988H123.786H123.586H123.388H123.191H122.997H122.805H122.614H122.425H122.238H122.053H121.87H121.689H121.509H121.332H121.156H120.982H120.809H120.638H120.47H120.302H120.137H119.973H119.811H119.65H119.491H119.334H119.178H119.024H118.871H118.72H118.571H118.423H118.277H118.132H117.989H117.847H117.706H117.567H117.43H117.294H117.159H117.026H116.894H116.764H116.634H116.507H116.38H116.255H116.131H116.008H115.887H115.767H115.648H115.531H115.414H115.299H115.185H115.072H114.961H114.85H114.741H114.632H114.525H114.419H114.314H114.21H114.107H114.005H113.904H113.804H113.706H113.608H113.511H113.415H113.32H113.225H113.132H113.04H112.948H112.858H112.768H112.679H112.591H112.503H112.417H112.331H112.246H112.162H112.078H111.995H111.913H111.832H111.751H111.671H111.592H111.513H111.435H111.357H111.28H111.204H111.128H111.053H110.978H110.904H110.83H110.757H110.684H110.612H110.54H110.468H110.397H110.327H110.257H110.187H110.117H110.048H109.979H109.911H109.843H109.775H109.708H109.64H109.573H109.506H109.44H109.374H109.307H109.241H109.176H109.11H109.044H108.979H108.914H108.849H108.784H108.718H108.654H108.589H108.524H108.459H108.394H108.329H108.264H108.199H108.134H108.069H108.004H107.938H107.873H107.807H107.742H107.676H107.61H107.544H107.477H107.411H107.344H107.277H107.209H107.142H107.074H107.006H106.937H106.868H106.799H106.73H106.66H106.589H106.519H106.448H106.376H106.304H106.232H106.159H106.085H106.011H105.937H105.862H105.787H105.711H105.634H105.557H105.479H105.401H105.322H105.242H105.162H105.081H105H104.917H104.834H104.75H104.666H104.581H104.495H104.408H104.32H104.232H104.143H104.053H103.962H103.87H103.778H103.684H103.59H103.494H103.398H103.301H103.203H103.103H103.003H102.902H102.8H102.697H102.593H102.487H102.381H102.273H102.165H102.055H101.944H101.832H101.719H101.605H101.489H101.372H101.254H101.135H101.015H100.893H100.77H100.646H100.52H100.394H100.265H100.136H100.005H99.8727H99.7391H99.604H99.4676H99.3297H99.1903H99.0495H98.9073H98.7635H98.6183H98.4715H98.3232H98.1733H98.0219H97.869H97.7144H97.5583H97.4005H97.2411H97.0801H96.9174H96.753H96.587H96.4192H96.2498H96.0786H95.9057H95.731H95.5545H95.3763H95.1963H95.0145H94.8308H94.6453H94.4579H94.2687H94.0776H93.8846H93.6897H93.4929H93.2941H93.0934H92.8907H92.686H92.4793H92.2707H92.06H91.8472H91.6324H91.4156H91.1967H90.9756H90.7525H90.5272H90.2999H90.0703H89.8386H89.6047H89.3686H89.1304H88.8899H88.6471H88.4021H88.1549H87.9053H87.6535H87.3994H87.1429H86.8842H86.623H86.3595H86.0937H85.8254H85.5547H85.2817H85.0061H84.7282H84.4477H84.1648H83.8795H83.5916H83.3012H83.0082H82.7127H82.4147H82.114H81.8108H81.505H81.1966H80.8855H80.5718H80.2555H79.9364H79.6147H79.2903H78.9631H78.6332H78.3006H77.9653H77.6271H77.2862H76.9424H76.5959H76.2465H75.8943H75.5392H75.1813H74.8204H74.4567H74.09H73.7205H73.348H72.9725H72.594H72.2126H71.8282H71.4408H71.0503H70.6568H70.2602H69.8606H69.4579H69.0521H68.6432H68.2311H67.8159H67.3976H66.9761H66.5514H66.1235H65.6924H65.2581H64.8205H64.3797H63.9356H63.4883H63.0376H62.5837H62.1264H61.6658H61.2018H60.7344H60.2637H59.7896H59.3121H58.8311H58.3468H57.8589H57.3676H56.8728H56.3746H55.8728H55.3675H54.8587H54.3463H53.8303H53.3108H52.7877H52.261H51.7306H51.1967H50.659H50.1177H49.5728H49.0241H48.4718H47.9157H47.3559H46.7923H46.225H45.6539H45.079H44.5003H43.9178H43.3314H42.7413H42.1472H41.5493H40.9475H40.3418H39.7321H39.1186H38.5011H37.8796H37.2542H36.6247H35.9913H35.3538H34.7124H34.0668H33.4173H32.7636H32.1059H31.444H30.7781H30.108H29.4338H28.7554H28.0728H27.3861H27.2565Z" stroke="#E4E4E4" stroke-width="2.5"/>
<path d="M26.5 144V143.5H26H7H6.5V144V145V145.5H7H26H26.5V145V144Z" fill="#E4E4E4" stroke="#E4E4E4"/>
<path d="M284.5 144V143.5H284H264H263.5V144V145V145.5H264H284H284.5V145V144Z" fill="#E4E4E4" stroke="#E4E4E4"/>
<g clip-path="url(#clip0_3598_1129)">
<path fill-rule="evenodd" clip-rule="evenodd" d="M77 138.25C73.2721 138.25 70.25 141.272 70.25 145C70.25 148.728 73.2721 151.75 77 151.75C80.7279 151.75 83.75 148.728 83.75 145C83.75 141.272 80.7279 138.25 77 138.25ZM68.75 145C68.75 140.444 72.4437 136.75 77 136.75C81.5563 136.75 85.25 140.444 85.25 145C85.25 149.556 81.5563 153.25 77 153.25C72.4437 153.25 68.75 149.556 68.75 145ZM77 141.25C77.4142 141.25 77.75 141.586 77.75 142V145C77.75 145.414 77.4142 145.75 77 145.75C76.5858 145.75 76.25 145.414 76.25 145V142C76.25 141.586 76.5858 141.25 77 141.25ZM76.25 148C76.25 147.586 76.5858 147.25 77 147.25H77.0075C77.4217 147.25 77.7575 147.586 77.7575 148C77.7575 148.414 77.4217 148.75 77.0075 148.75H77C76.5858 148.75 76.25 148.414 76.25 148Z" fill="#7C7C7C"/>
</g>
<path d="M91.9364 151V138.4H94.3484L101.782 147.472H100.612V138.4H103.492V151H101.098L93.6464 141.928H94.8164V151H91.9364ZM112.593 151.216C111.597 151.216 110.673 151.054 109.821 150.73C108.981 150.406 108.249 149.95 107.625 149.362C107.013 148.774 106.533 148.084 106.185 147.292C105.849 146.5 105.681 145.636 105.681 144.7C105.681 143.764 105.849 142.9 106.185 142.108C106.533 141.316 107.019 140.626 107.643 140.038C108.267 139.45 108.999 138.994 109.839 138.67C110.679 138.346 111.591 138.184 112.575 138.184C113.571 138.184 114.483 138.346 115.311 138.67C116.151 138.994 116.877 139.45 117.489 140.038C118.113 140.626 118.599 141.316 118.947 142.108C119.295 142.888 119.469 143.752 119.469 144.7C119.469 145.636 119.295 146.506 118.947 147.31C118.599 148.102 118.113 148.792 117.489 149.38C116.877 149.956 116.151 150.406 115.311 150.73C114.483 151.054 113.577 151.216 112.593 151.216ZM112.575 148.732C113.139 148.732 113.655 148.636 114.123 148.444C114.603 148.252 115.023 147.976 115.383 147.616C115.743 147.256 116.019 146.83 116.211 146.338C116.415 145.846 116.517 145.3 116.517 144.7C116.517 144.1 116.415 143.554 116.211 143.062C116.019 142.57 115.743 142.144 115.383 141.784C115.035 141.424 114.621 141.148 114.141 140.956C113.661 140.764 113.139 140.668 112.575 140.668C112.011 140.668 111.489 140.764 111.009 140.956C110.541 141.148 110.127 141.424 109.767 141.784C109.407 142.144 109.125 142.57 108.921 143.062C108.729 143.554 108.633 144.1 108.633 144.7C108.633 145.288 108.729 145.834 108.921 146.338C109.125 146.83 109.401 147.256 109.749 147.616C110.109 147.976 110.529 148.252 111.009 148.444C111.489 148.636 112.011 148.732 112.575 148.732ZM124.095 151V140.776H120.063V138.4H131.043V140.776H127.011V151H124.095ZM140.392 143.476H146.458V145.744H140.392V143.476ZM140.608 148.66H147.466V151H137.71V138.4H147.232V140.74H140.608V148.66ZM149.786 151V138.4H152.702V148.624H159.02V151H149.786ZM160.649 151V138.4H163.565V151H160.649ZM172.64 151.216C171.644 151.216 170.726 151.06 169.886 150.748C169.058 150.424 168.332 149.968 167.708 149.38C167.096 148.792 166.616 148.102 166.268 147.31C165.932 146.518 165.764 145.648 165.764 144.7C165.764 143.752 165.932 142.882 166.268 142.09C166.616 141.298 167.102 140.608 167.726 140.02C168.35 139.432 169.082 138.982 169.922 138.67C170.762 138.346 171.686 138.184 172.694 138.184C173.81 138.184 174.812 138.37 175.7 138.742C176.6 139.114 177.356 139.654 177.968 140.362L176.096 142.09C175.64 141.61 175.142 141.256 174.602 141.028C174.062 140.788 173.474 140.668 172.838 140.668C172.226 140.668 171.668 140.764 171.164 140.956C170.66 141.148 170.222 141.424 169.85 141.784C169.49 142.144 169.208 142.57 169.004 143.062C168.812 143.554 168.716 144.1 168.716 144.7C168.716 145.288 168.812 145.828 169.004 146.32C169.208 146.812 169.49 147.244 169.85 147.616C170.222 147.976 170.654 148.252 171.146 148.444C171.65 148.636 172.202 148.732 172.802 148.732C173.378 148.732 173.936 148.642 174.476 148.462C175.028 148.27 175.562 147.952 176.078 147.508L177.734 149.614C177.05 150.13 176.252 150.526 175.34 150.802C174.44 151.078 173.54 151.216 172.64 151.216ZM175.07 149.236V144.502H177.734V149.614L175.07 149.236ZM180.442 151V138.4H183.358V151H180.442ZM186.348 151V138.4H192.504C194.088 138.4 195.276 138.7 196.068 139.3C196.872 139.9 197.274 140.692 197.274 141.676C197.274 142.336 197.112 142.912 196.788 143.404C196.464 143.884 196.02 144.256 195.456 144.52C194.892 144.784 194.244 144.916 193.512 144.916L193.854 144.178C194.646 144.178 195.348 144.31 195.96 144.574C196.572 144.826 197.046 145.204 197.382 145.708C197.73 146.212 197.904 146.83 197.904 147.562C197.904 148.642 197.478 149.488 196.626 150.1C195.774 150.7 194.52 151 192.864 151H186.348ZM189.246 148.804H192.648C193.404 148.804 193.974 148.684 194.358 148.444C194.754 148.192 194.952 147.796 194.952 147.256C194.952 146.728 194.754 146.338 194.358 146.086C193.974 145.822 193.404 145.69 192.648 145.69H189.03V143.566H192.144C192.852 143.566 193.392 143.446 193.764 143.206C194.148 142.954 194.34 142.576 194.34 142.072C194.34 141.58 194.148 141.214 193.764 140.974C193.392 140.722 192.852 140.596 192.144 140.596H189.246V148.804ZM200.112 151V138.4H203.028V148.624H209.346V151H200.112ZM213.657 143.476H219.723V145.744H213.657V143.476ZM213.873 148.66H220.731V151H210.975V138.4H220.497V140.74H213.873V148.66Z" fill="#7C7C7C"/>
<path d="M145.065 34.5L145.064 34.5C123.209 34.4874 101.841 40.9557 83.6627 53.0871C65.4841 65.2184 51.311 82.468 42.9359 102.654C34.5607 122.841 32.3596 145.057 36.6108 166.495C40.8621 187.932 51.3748 207.627 66.8195 223.09C82.2643 238.553 101.947 249.088 123.38 253.364C144.812 257.64 167.031 255.465 187.227 247.113C207.423 238.761 224.689 224.608 236.842 206.444C248.994 188.279 255.487 166.919 255.5 145.064V145.063C255.483 115.768 243.847 87.6745 223.143 66.9472C202.44 46.2199 174.36 34.5509 145.065 34.5ZM145.063 252.376C123.821 252.389 103.052 246.1 85.3844 234.307C67.7167 222.513 53.9442 205.744 45.8093 186.12C37.6743 166.497 35.5426 144.902 39.6837 124.067C43.8248 103.233 54.0527 84.0941 69.0734 69.0734C84.0941 54.0527 103.233 43.8248 124.067 39.6837C144.902 35.5426 166.497 37.6743 186.12 45.8093C205.744 53.9442 222.513 67.7167 234.307 85.3844C246.1 103.052 252.389 123.821 252.376 145.063C252.326 173.509 241.004 200.775 220.889 220.889C200.775 241.004 173.509 252.326 145.063 252.376Z" fill="white" stroke="white"/>
<defs>
<clipPath id="clip0_3598_1129">
<rect width="18" height="18" fill="white" transform="translate(68 136)"/>
</clipPath>
</defs>
</svg>
