<svg width="141" height="53" viewBox="0 0 141 53" fill="none" xmlns="http://www.w3.org/2000/svg">
<path d="M0.798159 40.552V34.072L25.6382 1.6H35.6462L11.1662 34.072L6.48616 32.632H46.4462V40.552H0.798159ZM28.4462 52V40.552L28.7342 32.632V22.48H37.5182V52H28.4462ZM69.9693 52.72C65.9853 52.72 62.3853 51.712 59.1693 49.696C56.0013 47.68 53.5053 44.752 51.6813 40.912C49.8573 37.024 48.9453 32.32 48.9453 26.8C48.9453 21.28 49.8573 16.6 51.6813 12.76C53.5053 8.872 56.0013 5.92 59.1693 3.904C62.3853 1.888 65.9853 0.879997 69.9693 0.879997C74.0013 0.879997 77.6013 1.888 80.7693 3.904C83.9374 5.92 86.4334 8.872 88.2573 12.76C90.1293 16.6 91.0653 21.28 91.0653 26.8C91.0653 32.32 90.1293 37.024 88.2573 40.912C86.4334 44.752 83.9374 47.68 80.7693 49.696C77.6013 51.712 74.0013 52.72 69.9693 52.72ZM69.9693 44.584C72.3213 44.584 74.3613 43.96 76.0893 42.712C77.8173 41.416 79.1613 39.448 80.1213 36.808C81.1293 34.168 81.6333 30.832 81.6333 26.8C81.6333 22.72 81.1293 19.384 80.1213 16.792C79.1613 14.152 77.8173 12.208 76.0893 10.96C74.3613 9.664 72.3213 9.016 69.9693 9.016C67.7133 9.016 65.6973 9.664 63.9213 10.96C62.1933 12.208 60.8253 14.152 59.8173 16.792C58.8573 19.384 58.3773 22.72 58.3773 26.8C58.3773 30.832 58.8573 34.168 59.8173 36.808C60.8253 39.448 62.1933 41.416 63.9213 42.712C65.6973 43.96 67.7133 44.584 69.9693 44.584ZM95.2307 40.552V34.072L120.071 1.6H130.079L105.599 34.072L100.919 32.632H140.879V40.552H95.2307ZM122.879 52V40.552L123.167 32.632V22.48H131.951V52H122.879Z" fill="url(#paint0_linear_1705_4617)"/>
<defs>
<linearGradient id="paint0_linear_1705_4617" x1="-2" y1="70" x2="144.785" y2="65.0796" gradientUnits="userSpaceOnUse">
<stop stop-color="#5EA5FF"/>
<stop offset="0.445" stop-color="#C79AFF"/>
<stop offset="0.90877" stop-color="#FFB76A"/>
</linearGradient>
</defs>
</svg>
