<svg width="156" height="111" viewBox="0 0 156 111" fill="none" xmlns="http://www.w3.org/2000/svg">
<rect x="36.4755" y="17" width="80" height="80" rx="40" fill="#FAFAFA"/>
<path fill-rule="evenodd" clip-rule="evenodd" d="M85.6998 43.2164C87.0411 42.9783 88.325 42.926 89.3674 43.1802C89.6017 43.2365 89.8152 43.358 89.9833 43.5306C90.1494 43.7013 90.2644 43.915 90.3152 44.1475C90.56 45.2208 90.5092 46.5156 90.2704 47.8672C90.0286 49.2359 89.5818 50.7305 88.9771 52.2307C87.7721 55.2203 85.9019 58.326 83.6481 60.568C82.9856 61.2345 82.2757 61.8517 81.5241 62.4148C81.5733 63.6419 81.4333 64.9116 80.9332 66.0593L80.9327 66.0604C80.1224 67.9138 78.6626 69.0775 77.2565 69.8001C75.8545 70.5207 74.4453 70.8357 73.6091 70.9701C73.3726 71.0083 73.1305 70.9917 72.9015 70.9214C72.6725 70.8511 72.4627 70.7291 72.2883 70.5648C72.114 70.4005 71.9797 70.1984 71.896 69.9739C71.8122 69.7495 71.7812 69.5088 71.8053 69.2705C71.8056 69.2676 71.8059 69.2648 71.8062 69.262L72.2467 65.2483C72.2021 65.2438 72.1575 65.2391 72.1129 65.2342C71.6221 65.1835 71.1639 64.9644 70.8164 64.614C70.8156 64.6132 70.8148 64.6124 70.814 64.6116L68.8604 62.6579C68.8596 62.6571 68.8588 62.6563 68.858 62.6555C68.5077 62.3082 68.2885 61.8503 68.2377 61.3597C68.2325 61.3129 68.2276 61.266 68.2229 61.219L64.2056 61.6601L64.2015 61.6605L64.1984 61.6608C63.9597 61.6853 63.7186 61.6545 63.4938 61.5707C63.269 61.487 63.0665 61.3526 62.902 61.178C62.7375 61.0035 62.6154 60.7933 62.5451 60.5639C62.4749 60.3345 62.4584 60.0921 62.497 59.8553L62.4973 59.8535C62.6346 59.0199 62.9511 57.6129 63.6727 56.2117C64.3961 54.8069 65.5595 53.3481 67.4115 52.5338L67.4141 52.5326C68.5623 52.0317 69.8388 51.892 71.0735 51.9459C71.6367 51.1969 72.2534 50.4896 72.919 49.8293C75.1676 47.5829 78.3202 45.7135 81.3294 44.5093C82.8398 43.905 84.3393 43.4579 85.6998 43.2164ZM82.0724 46.3662C79.2424 47.4987 76.3409 49.2373 74.3314 51.2453L74.3288 51.2479C73.6111 51.9598 72.9566 52.7327 72.3729 53.5579C72.1669 53.8491 71.8215 54.0085 71.4664 53.9764C70.2491 53.8662 69.1231 53.9695 68.2153 54.3651C66.9123 54.9384 66.0391 55.9849 65.4507 57.1274C64.9975 58.0075 64.7327 58.9089 64.5803 59.6069L69.0542 59.1158C69.3351 59.0849 69.616 59.1744 69.8273 59.3621C70.0387 59.5497 70.1607 59.818 70.1633 60.1006C70.1665 60.4489 70.1874 60.7967 70.226 61.1429C70.2263 61.1464 70.2267 61.1498 70.2271 61.1533C70.2302 61.1844 70.2441 61.2135 70.2663 61.2354L70.2705 61.2396L72.2323 63.2014L72.2364 63.2055C72.2584 63.2278 72.2875 63.2417 72.3186 63.2448C72.3223 63.2451 72.3261 63.2455 72.3298 63.246C72.6738 63.2843 73.0195 63.3052 73.3656 63.3086C73.6481 63.3113 73.9162 63.4335 74.1038 63.6448C74.2913 63.8561 74.3807 64.1368 74.3499 64.4176L73.8592 68.8886C74.5571 68.7382 75.4606 68.4744 76.3423 68.0213C77.4855 67.4338 78.5307 66.5612 79.0999 65.2599C79.4965 64.3495 79.5997 63.2285 79.4952 62.015C79.4646 61.6606 79.6247 61.3166 79.9155 61.1117C80.743 60.5286 81.5179 59.8743 82.2315 59.1562L82.2357 59.152C84.2547 57.1442 85.9922 54.2865 87.1221 51.4831C87.6851 50.0864 88.0876 48.7266 88.3009 47.5192C88.4738 46.5406 88.5149 45.7039 88.4406 45.045C87.82 44.975 87.0119 45.0148 86.0493 45.1856C84.8487 45.3987 83.482 45.8021 82.0724 46.3662ZM73.2913 68.9955C73.2909 68.9956 73.2905 68.9957 73.2901 68.9957L73.291 68.9956L73.2913 68.9955ZM81.029 50.7994C80.6989 50.7994 80.3763 50.8972 80.1018 51.0806C79.8274 51.264 79.6135 51.5247 79.4872 51.8296C79.3609 52.1346 79.3279 52.4701 79.3923 52.7938C79.4567 53.1175 79.6157 53.4149 79.8491 53.6482L79.85 53.6491C80.0047 53.8041 80.1884 53.9271 80.3908 54.011C80.5931 54.095 80.8099 54.1382 81.029 54.1382C81.248 54.1382 81.4649 54.095 81.6672 54.011C81.8695 53.9271 82.0533 53.8041 82.208 53.6491L82.2088 53.6482C82.4422 53.4149 82.6012 53.1175 82.6656 52.7938C82.73 52.4701 82.697 52.1346 82.5707 51.8296C82.4444 51.5247 82.2306 51.264 81.9561 51.0806C81.6817 50.8972 81.359 50.7994 81.029 50.7994ZM78.9906 49.4177C79.594 49.0146 80.3033 48.7994 81.029 48.7994C81.7546 48.7994 82.464 49.0146 83.0673 49.4177C83.6706 49.8209 84.1409 50.3939 84.4185 51.0643C84.6962 51.7348 84.7688 52.4725 84.6272 53.1842C84.4856 53.8955 84.1364 54.5489 83.6237 55.0618C83.2832 55.403 82.8788 55.6737 82.4335 55.8584C81.9883 56.0431 81.511 56.1382 81.029 56.1382C80.5469 56.1382 80.0696 56.0431 79.6244 55.8584C79.1794 55.6738 78.7751 55.4033 78.4348 55.0623C77.9218 54.5493 77.5724 53.8957 77.4308 53.1842C77.2891 52.4725 77.3618 51.7348 77.6394 51.0643C77.9171 50.3939 78.3873 49.8209 78.9906 49.4177ZM68.3209 62.8792C68.3882 63.4274 67.9984 63.9263 67.4502 63.9936C67.0489 64.0429 66.6755 64.2246 66.3892 64.5101C66.2931 64.6069 66.138 64.8726 65.9849 65.3739C65.8414 65.8436 65.734 66.4021 65.6559 66.9563C65.6072 67.3019 65.5711 67.6361 65.5446 67.9322C65.841 67.9057 66.1755 67.8697 66.5213 67.8209C67.0756 67.7426 67.634 67.6352 68.1034 67.4916C68.6056 67.338 68.8701 67.1826 68.9654 67.0873L68.9671 67.0856C69.2532 66.8007 69.4349 66.4278 69.483 66.027C69.5487 65.4786 70.0466 65.0874 70.5949 65.1532C71.1433 65.2189 71.5345 65.7168 71.4687 66.2651C71.3672 67.112 70.9833 67.9001 70.379 68.5021C69.9234 68.9574 69.2635 69.2282 68.6884 69.4041C68.08 69.5902 67.408 69.7156 66.8008 69.8012C66.189 69.8876 65.6173 69.9372 65.2001 69.9653C64.9908 69.9793 64.8187 69.9881 64.6978 69.9935C64.6373 69.9961 64.5895 69.9979 64.5562 69.999C64.5396 69.9996 64.5265 70 64.5173 70.0003L64.5064 70.0006L64.502 70.0007L64.5016 70.0007C64.5015 70.0007 64.5013 70.0007 64.4758 69.001C63.4762 68.9756 63.4762 68.9754 63.4762 68.9753L63.4763 68.9705L63.4766 68.9596C63.4769 68.9504 63.4773 68.9373 63.4779 68.9207C63.479 68.8874 63.4808 68.8397 63.4834 68.7792C63.4887 68.6584 63.4975 68.4864 63.5116 68.2772C63.5397 67.8602 63.5892 67.2887 63.6755 66.677C63.7611 66.07 63.8863 65.3982 64.0721 64.7897C64.248 64.214 64.5185 63.5538 64.9732 63.0976L64.9749 63.096C65.5768 62.4949 66.3622 62.1121 67.2065 62.0085C67.7547 61.9412 68.2536 62.331 68.3209 62.8792ZM64.4758 69.001L63.4762 68.9756C63.4692 69.2495 63.5749 69.5144 63.7687 69.7082C63.9625 69.9019 64.2274 70.0077 64.5013 70.0007L64.4758 69.001Z" fill="#1960BB"/>
<line x1="1.09589" y1="-1.09589" x2="3.40487" y2="-1.09589" transform="matrix(-1 0 0 1 44.8306 12)" stroke="#1492EF" stroke-width="2.19178" stroke-linecap="round"/>
<line x1="1.09589" y1="-1.09589" x2="9.76068" y2="-1.09589" transform="matrix(-1 0 0 1 37.1891 12)" stroke="#1492EF" stroke-width="2.19178" stroke-linecap="round"/>
<line x1="1.09589" y1="-1.09589" x2="3.40487" y2="-1.09589" transform="matrix(-1 0 0 1 24.9723 31.726)" stroke="#FFB86B" stroke-width="2.19178" stroke-linecap="round"/>
<line x1="1.09589" y1="-1.09589" x2="9.76068" y2="-1.09589" transform="matrix(-1 0 0 1 17.331 31.726)" stroke="#FFB86B" stroke-width="2.19178" stroke-linecap="round"/>
<line x1="1.09589" y1="-1.09589" x2="3.40487" y2="-1.09589" transform="matrix(1 0 0 -1 108.474 101.726)" stroke="#1492EF" stroke-width="2.19178" stroke-linecap="round"/>
<line x1="1.09589" y1="-1.09589" x2="9.76068" y2="-1.09589" transform="matrix(1 0 0 -1 116.115 101.726)" stroke="#1492EF" stroke-width="2.19178" stroke-linecap="round"/>
<line x1="1.09589" y1="-1.09589" x2="3.40487" y2="-1.09589" transform="matrix(1 0 0 -1 128.332 82.0001)" stroke="#FFB86B" stroke-width="2.19178" stroke-linecap="round"/>
<line x1="1.09589" y1="-1.09589" x2="9.76068" y2="-1.09589" transform="matrix(1 0 0 -1 135.973 82.0001)" stroke="#FFB86B" stroke-width="2.19178" stroke-linecap="round"/>
</svg>
