<svg width="14" height="16" viewBox="0 0 14 16" fill="none" xmlns="http://www.w3.org/2000/svg">
<path fill-rule="evenodd" clip-rule="evenodd" d="M3.70014 2.03346C4.57531 1.15829 5.76229 0.666626 6.99997 0.666626C8.23765 0.666626 9.42463 1.15829 10.2998 2.03346C11.175 2.90863 11.6666 4.09562 11.6666 5.33329C11.6666 7.5684 12.1447 8.95638 12.5852 9.76406C12.8064 10.1696 13.0218 10.4356 13.1714 10.5935C13.2464 10.6727 13.3053 10.7252 13.3408 10.7547C13.3586 10.7695 13.3705 10.7786 13.3756 10.7824C13.3764 10.783 13.377 10.7835 13.3775 10.7838C13.6165 10.948 13.7223 11.2483 13.638 11.5265C13.5529 11.8077 13.2937 12 13 12H0.999971C0.706192 12 0.447041 11.8077 0.361909 11.5265C0.277681 11.2483 0.38344 10.948 0.62243 10.7838C0.622898 10.7835 0.623534 10.783 0.624335 10.7824C0.629468 10.7786 0.641371 10.7695 0.659118 10.7547C0.694596 10.7252 0.753518 10.6727 0.828502 10.5935C0.978121 10.4356 1.19351 10.1696 1.41471 9.76406C1.85526 8.95638 2.3333 7.5684 2.3333 5.33329C2.3333 4.09562 2.82497 2.90863 3.70014 2.03346ZM0.629169 10.7793C0.629221 10.7792 0.629274 10.7792 0.629327 10.7792C0.629324 10.7792 0.629321 10.7792 0.629318 10.7792L0.629169 10.7793ZM2.43285 10.6666H11.5671C11.5164 10.5835 11.4654 10.4955 11.4147 10.4025C10.8553 9.37687 10.3333 7.76485 10.3333 5.33329C10.3333 4.44924 9.98211 3.60139 9.35699 2.97627C8.73187 2.35115 7.88403 1.99996 6.99997 1.99996C6.11592 1.99996 5.26807 2.35115 4.64295 2.97627C4.01783 3.60139 3.66664 4.44924 3.66664 5.33329C3.66664 7.76485 3.14468 9.37687 2.58523 10.4025C2.5345 10.4955 2.48358 10.5835 2.43285 10.6666ZM5.51212 13.4233C5.83061 13.2385 6.23856 13.347 6.4233 13.6654C6.48191 13.7665 6.56602 13.8503 6.66723 13.9086C6.76843 13.9669 6.88318 13.9976 6.99997 13.9976C7.11677 13.9976 7.23151 13.9669 7.33271 13.9086C7.43392 13.8503 7.51803 13.7665 7.57664 13.6654C7.76138 13.347 8.16933 13.2385 8.48782 13.4233C8.8063 13.608 8.91472 14.016 8.72997 14.3345C8.55416 14.6376 8.30181 14.8891 7.9982 15.064C7.69458 15.2389 7.35035 15.3309 6.99997 15.3309C6.64959 15.3309 6.30536 15.2389 6.00174 15.064C5.69813 14.8891 5.44578 14.6376 5.26997 14.3345C5.08522 14.016 5.19364 13.608 5.51212 13.4233Z" fill="white"/>
</svg>
