<svg width="20" height="20" viewBox="0 0 20 20" fill="none" xmlns="http://www.w3.org/2000/svg">
<g clip-path="url(#clip0_766_24650)">
<path fill-rule="evenodd" clip-rule="evenodd" d="M16.6668 2.39909C16.419 2.39909 16.1813 2.49754 16.0061 2.67278L8.25263 10.4262L7.81214 12.1882L9.57412 11.7477L17.3276 3.99427C17.5028 3.81903 17.6013 3.58135 17.6013 3.33352C17.6013 3.0857 17.5028 2.84802 17.3276 2.67278C17.1523 2.49754 16.9147 2.39909 16.6668 2.39909ZM14.8276 1.49427C15.3154 1.00647 15.977 0.732422 16.6668 0.732422C17.3567 0.732422 18.0183 1.00647 18.5061 1.49427C18.9939 1.98207 19.2679 2.64367 19.2679 3.33352C19.2679 4.02338 18.9939 4.68498 18.5061 5.17278L10.5894 13.0894C10.4826 13.1962 10.3488 13.272 10.2023 13.3086L6.86894 14.142C6.58496 14.213 6.28456 14.1298 6.07757 13.9228C5.87059 13.7158 5.78738 13.4154 5.85838 13.1314L6.69171 9.79808C6.72834 9.65155 6.80411 9.51773 6.91091 9.41093L14.8276 1.49427ZM1.56573 3.23242C2.03457 2.76358 2.67045 2.50019 3.3335 2.50019H9.16683C9.62707 2.50019 10.0002 2.87328 10.0002 3.33352C10.0002 3.79376 9.62707 4.16686 9.16683 4.16686H3.3335C3.11248 4.16686 2.90052 4.25465 2.74424 4.41093C2.58796 4.56721 2.50016 4.77917 2.50016 5.00019V16.6669C2.50016 16.8879 2.58796 17.0998 2.74424 17.2561C2.90052 17.4124 3.11248 17.5002 3.3335 17.5002H15.0002C15.2212 17.5002 15.4331 17.4124 15.5894 17.2561C15.7457 17.0998 15.8335 16.8879 15.8335 16.6669V10.8335C15.8335 10.3733 16.2066 10.0002 16.6668 10.0002C17.1271 10.0002 17.5002 10.3733 17.5002 10.8335V16.6669C17.5002 17.3299 17.2368 17.9658 16.7679 18.4346C16.2991 18.9035 15.6632 19.1669 15.0002 19.1669H3.3335C2.67045 19.1669 2.03457 18.9035 1.56573 18.4346C1.09689 17.9658 0.833496 17.3299 0.833496 16.6669V5.00019C0.833496 4.33715 1.09689 3.70126 1.56573 3.23242Z" fill="#1492EF"/>
</g>
<defs>
<clipPath id="clip0_766_24650">
<rect width="20" height="20" fill="white"/>
</clipPath>
</defs>
</svg>
