<svg width="14" height="12" viewBox="0 0 14 12" fill="none" xmlns="http://www.w3.org/2000/svg">
<path fill-rule="evenodd" clip-rule="evenodd" d="M2.25 1.5C1.55964 1.5 1 2.05964 1 2.75V3.0625H13V2.75C13 2.05964 12.4404 1.5 11.75 1.5H2.25ZM1 9.25V4.9375H13V9.25C13 9.94036 12.4404 10.5 11.75 10.5H2.25C1.55964 10.5 1 9.94036 1 9.25ZM0 2.75C0 1.50736 1.00736 0.5 2.25 0.5H11.75C12.9926 0.5 14 1.50736 14 2.75V9.25C14 10.4926 12.9926 11.5 11.75 11.5H2.25C1.00736 11.5 0 10.4926 0 9.25V2.75ZM3 6.4375C2.48223 6.4375 2.0625 6.85723 2.0625 7.375V8C2.0625 8.51777 2.48223 8.9375 3 8.9375H4.5C5.01777 8.9375 5.4375 8.51777 5.4375 8V7.375C5.4375 6.85723 5.01777 6.4375 4.5 6.4375H3Z" fill="#373737"/>
</svg>
