<svg width="16" height="16" viewBox="0 0 16 16" fill="none" xmlns="http://www.w3.org/2000/svg">
<path fill-rule="evenodd" clip-rule="evenodd" d="M8 1.99996C4.6863 1.99996 2.00001 4.68625 2.00001 7.99996C2.00001 11.3137 4.6863 14 8 14C11.3137 14 14 11.3137 14 7.99996C14 4.68625 11.3137 1.99996 8 1.99996ZM0.666672 7.99996C0.666672 3.94987 3.94992 0.666626 8 0.666626C12.0501 0.666626 15.3333 3.94987 15.3333 7.99996C15.3333 12.05 12.0501 15.3333 8 15.3333C3.94992 15.3333 0.666672 12.05 0.666672 7.99996ZM8 4.66663C8.36819 4.66663 8.66667 4.9651 8.66667 5.33329V7.99996C8.66667 8.36815 8.36819 8.66663 8 8.66663C7.63181 8.66663 7.33334 8.36815 7.33334 7.99996V5.33329C7.33334 4.9651 7.63181 4.66663 8 4.66663ZM7.33334 10.6666C7.33334 10.2984 7.63181 9.99996 8 9.99996H8.00667C8.37486 9.99996 8.67334 10.2984 8.67334 10.6666C8.67334 11.0348 8.37486 11.3333 8.00667 11.3333H8C7.63181 11.3333 7.33334 11.0348 7.33334 10.6666Z" fill="#7C7C7C"/>
</svg>
