<svg width="155" height="16" viewBox="0 0 155 16" fill="none" xmlns="http://www.w3.org/2000/svg">
<path d="M0.66 15V0.999999H3.9V15H0.66ZM6.8225 15V0.999999H9.5025L15.4625 10.88H14.0425L19.9025 0.999999H22.5625L22.6025 15H19.5625L19.5425 5.66H20.1025L15.4225 13.52H13.9625L9.1825 5.66H9.8625V15H6.8225ZM25.5241 15V0.999999H31.5841C32.8374 0.999999 33.9174 1.20667 34.8241 1.62C35.7307 2.02 36.4307 2.6 36.9241 3.36C37.4174 4.12 37.6641 5.02667 37.6641 6.08C37.6641 7.12 37.4174 8.02 36.9241 8.78C36.4307 9.54 35.7307 10.1267 34.8241 10.54C33.9174 10.94 32.8374 11.14 31.5841 11.14H27.3241L28.7641 9.68V15H25.5241ZM28.7641 10.04L27.3241 8.5H31.4041C32.4041 8.5 33.1507 8.28667 33.6441 7.86C34.1374 7.43333 34.3841 6.84 34.3841 6.08C34.3841 5.30667 34.1374 4.70667 33.6441 4.28C33.1507 3.85333 32.4041 3.64 31.4041 3.64H27.3241L28.7641 2.1V10.04ZM37.0341 15L43.2741 0.999999H46.4741L52.7341 15H49.3341L44.2141 2.64H45.4941L40.3541 15H37.0341ZM40.1541 12L41.0141 9.54H48.2141L49.0941 12H40.1541ZM56.6866 11.8L56.5066 8.06L63.2066 0.999999H66.8066L60.7666 7.5L58.9666 9.42L56.6866 11.8ZM53.7866 15V0.999999H57.0066V15H53.7866ZM63.3666 15L58.3866 8.9L60.5066 6.6L67.1466 15H63.3666ZM70.1342 15V3.64H65.6542V0.999999H77.8542V3.64H73.3742V15H70.1342ZM82.1775 6.64H88.9175V9.16H82.1775V6.64ZM82.4175 12.4H90.0375V15H79.1975V0.999999H89.7775V3.6H82.4175V12.4ZM92.2155 15V0.999999H98.2755C99.5288 0.999999 100.609 1.20667 101.515 1.62C102.422 2.02 103.122 2.6 103.615 3.36C104.109 4.12 104.355 5.02667 104.355 6.08C104.355 7.12 104.109 8.02 103.615 8.78C103.122 9.52667 102.422 10.1 101.515 10.5C100.609 10.9 99.5288 11.1 98.2755 11.1H94.0155L95.4555 9.68V15H92.2155ZM101.115 15L97.6155 9.92H101.075L104.615 15H101.115ZM95.4555 10.04L94.0155 8.52H98.0955C99.0955 8.52 99.8421 8.30667 100.335 7.88C100.829 7.44 101.075 6.84 101.075 6.08C101.075 5.30667 100.829 4.70667 100.335 4.28C99.8421 3.85333 99.0955 3.64 98.0955 3.64H94.0155L95.4555 2.1V10.04Z" fill="#1D2029"/>
<path d="M111.787 15V0.999999H117.847C119.1 0.999999 120.18 1.20667 121.087 1.62C121.993 2.02 122.693 2.6 123.187 3.36C123.68 4.12 123.927 5.02667 123.927 6.08C123.927 7.12 123.68 8.02 123.187 8.78C122.693 9.54 121.993 10.1267 121.087 10.54C120.18 10.94 119.1 11.14 117.847 11.14H113.587L115.027 9.68V15H111.787ZM115.027 10.04L113.587 8.5H117.667C118.667 8.5 119.413 8.28667 119.907 7.86C120.4 7.43333 120.647 6.84 120.647 6.08C120.647 5.30667 120.4 4.70667 119.907 4.28C119.413 3.85333 118.667 3.64 117.667 3.64H113.587L115.027 2.1V10.04ZM125.84 15V0.999999H131.9C133.153 0.999999 134.233 1.20667 135.14 1.62C136.046 2.02 136.746 2.6 137.24 3.36C137.733 4.12 137.98 5.02667 137.98 6.08C137.98 7.12 137.733 8.02 137.24 8.78C136.746 9.52667 136.046 10.1 135.14 10.5C134.233 10.9 133.153 11.1 131.9 11.1H127.64L129.08 9.68V15H125.84ZM134.74 15L131.24 9.92H134.7L138.24 15H134.74ZM129.08 10.04L127.64 8.52H131.72C132.72 8.52 133.466 8.30667 133.96 7.88C134.453 7.44 134.7 6.84 134.7 6.08C134.7 5.30667 134.453 4.70667 133.96 4.28C133.466 3.85333 132.72 3.64 131.72 3.64H127.64L129.08 2.1V10.04ZM146.947 15.24C145.84 15.24 144.813 15.06 143.867 14.7C142.933 14.34 142.12 13.8333 141.427 13.18C140.747 12.5267 140.213 11.76 139.827 10.88C139.453 10 139.267 9.04 139.267 8C139.267 6.96 139.453 6 139.827 5.12C140.213 4.24 140.753 3.47333 141.447 2.82C142.14 2.16667 142.953 1.66 143.887 1.3C144.82 0.939999 145.833 0.76 146.927 0.76C148.033 0.76 149.047 0.939999 149.967 1.3C150.9 1.66 151.707 2.16667 152.387 2.82C153.08 3.47333 153.62 4.24 154.007 5.12C154.393 5.98667 154.587 6.94667 154.587 8C154.587 9.04 154.393 10.0067 154.007 10.9C153.62 11.78 153.08 12.5467 152.387 13.2C151.707 13.84 150.9 14.34 149.967 14.7C149.047 15.06 148.04 15.24 146.947 15.24ZM146.927 12.48C147.553 12.48 148.127 12.3733 148.647 12.16C149.18 11.9467 149.647 11.64 150.047 11.24C150.447 10.84 150.753 10.3667 150.967 9.82C151.193 9.27333 151.307 8.66667 151.307 8C151.307 7.33333 151.193 6.72667 150.967 6.18C150.753 5.63333 150.447 5.16 150.047 4.76C149.66 4.36 149.2 4.05333 148.667 3.84C148.133 3.62667 147.553 3.52 146.927 3.52C146.3 3.52 145.72 3.62667 145.187 3.84C144.667 4.05333 144.207 4.36 143.807 4.76C143.407 5.16 143.093 5.63333 142.867 6.18C142.653 6.72667 142.547 7.33333 142.547 8C142.547 8.65333 142.653 9.26 142.867 9.82C143.093 10.3667 143.4 10.84 143.787 11.24C144.187 11.64 144.653 11.9467 145.187 12.16C145.72 12.3733 146.3 12.48 146.927 12.48Z" fill="#1960BB"/>
</svg>
