<svg width="152" height="33" viewBox="0 0 152 33" fill="none" xmlns="http://www.w3.org/2000/svg">
<path d="M1.162 10V0.199999H3.43V10H1.162ZM5.47575 10V0.199999H7.35175L11.5238 7.116H10.5298L14.6318 0.199999H16.4938L16.5218 10H14.3938L14.3798 3.462H14.7718L11.4957 8.964H10.4738L7.12775 3.462H7.60375V10H5.47575ZM18.5668 10V0.199999H22.8088C23.6862 0.199999 24.4422 0.344666 25.0768 0.634C25.7115 0.913999 26.2015 1.32 26.5468 1.852C26.8922 2.384 27.0648 3.01867 27.0648 3.756C27.0648 4.484 26.8922 5.114 26.5468 5.646C26.2015 6.178 25.7115 6.58867 25.0768 6.878C24.4422 7.158 23.6862 7.298 22.8088 7.298H19.8268L20.8348 6.276V10H18.5668ZM20.8348 6.528L19.8268 5.45H22.6828C23.3828 5.45 23.9055 5.30067 24.2508 5.002C24.5962 4.70333 24.7688 4.288 24.7688 3.756C24.7688 3.21467 24.5962 2.79467 24.2508 2.496C23.9055 2.19733 23.3828 2.048 22.6828 2.048H19.8268L20.8348 0.969999V6.528ZM26.6238 10L30.9918 0.199999H33.2318L37.6138 10H35.2338L31.6498 1.348H32.5458L28.9478 10H26.6238ZM28.8078 7.9L29.4098 6.178H34.4498L35.0658 7.9H28.8078ZM40.3806 7.76L40.2546 5.142L44.9446 0.199999H47.4646L43.2366 4.75L41.9766 6.094L40.3806 7.76ZM38.3506 10V0.199999H40.6046V10H38.3506ZM45.0566 10L41.5706 5.73L43.0546 4.12L47.7026 10H45.0566ZM49.794 10V2.048H46.658V0.199999H55.198V2.048H52.062V10H49.794ZM58.2242 4.148H62.9422V5.912H58.2242V4.148ZM58.3922 8.18H63.7262V10H56.1382V0.199999H63.5443V2.02H58.3922V8.18ZM65.2508 10V0.199999H69.4928C70.3702 0.199999 71.1262 0.344666 71.7608 0.634C72.3955 0.913999 72.8855 1.32 73.2308 1.852C73.5762 2.384 73.7488 3.01867 73.7488 3.756C73.7488 4.484 73.5762 5.114 73.2308 5.646C72.8855 6.16867 72.3955 6.57 71.7608 6.85C71.1262 7.13 70.3702 7.27 69.4928 7.27H66.5108L67.5188 6.276V10H65.2508ZM71.4808 10L69.0308 6.444H71.4528L73.9308 10H71.4808ZM67.5188 6.528L66.5108 5.464H69.3668C70.0668 5.464 70.5895 5.31467 70.9348 5.016C71.2802 4.708 71.4528 4.288 71.4528 3.756C71.4528 3.21467 71.2802 2.79467 70.9348 2.496C70.5895 2.19733 70.0668 2.048 69.3668 2.048H66.5108L67.5188 0.969999V6.528Z" fill="#1D2029"/>
<path d="M78.9506 10V0.199999H83.1926C84.0699 0.199999 84.8259 0.344666 85.4606 0.634C86.0953 0.913999 86.5853 1.32 86.9306 1.852C87.2759 2.384 87.4486 3.01867 87.4486 3.756C87.4486 4.484 87.2759 5.114 86.9306 5.646C86.5853 6.178 86.0953 6.58867 85.4606 6.878C84.8259 7.158 84.0699 7.298 83.1926 7.298H80.2106L81.2186 6.276V10H78.9506ZM81.2186 6.528L80.2106 5.45H83.0666C83.7666 5.45 84.2893 5.30067 84.6346 5.002C84.9799 4.70333 85.1526 4.288 85.1526 3.756C85.1526 3.21467 84.9799 2.79467 84.6346 2.496C84.2893 2.19733 83.7666 2.048 83.0666 2.048H80.2106L81.2186 0.969999V6.528ZM88.7878 10V0.199999H93.0298C93.9071 0.199999 94.6631 0.344666 95.2978 0.634C95.9324 0.913999 96.4224 1.32 96.7678 1.852C97.1131 2.384 97.2858 3.01867 97.2858 3.756C97.2858 4.484 97.1131 5.114 96.7678 5.646C96.4224 6.16867 95.9324 6.57 95.2978 6.85C94.6631 7.13 93.9071 7.27 93.0298 7.27H90.0478L91.0558 6.276V10H88.7878ZM95.0178 10L92.5678 6.444H94.9898L97.4678 10H95.0178ZM91.0558 6.528L90.0478 5.464H92.9038C93.6038 5.464 94.1264 5.31467 94.4718 5.016C94.8171 4.708 94.9898 4.288 94.9898 3.756C94.9898 3.21467 94.8171 2.79467 94.4718 2.496C94.1264 2.19733 93.6038 2.048 92.9038 2.048H90.0478L91.0558 0.969999V6.528ZM103.563 10.168C102.788 10.168 102.069 10.042 101.407 9.79C100.753 9.538 100.184 9.18333 99.6987 8.726C99.2227 8.26867 98.8494 7.732 98.5787 7.116C98.3174 6.5 98.1867 5.828 98.1867 5.1C98.1867 4.372 98.3174 3.7 98.5787 3.084C98.8494 2.468 99.2274 1.93133 99.7127 1.474C100.198 1.01667 100.767 0.661999 101.421 0.409999C102.074 0.158 102.783 0.0319998 103.549 0.0319998C104.323 0.0319998 105.033 0.158 105.677 0.409999C106.33 0.661999 106.895 1.01667 107.371 1.474C107.856 1.93133 108.234 2.468 108.505 3.084C108.775 3.69067 108.911 4.36267 108.911 5.1C108.911 5.828 108.775 6.50467 108.505 7.13C108.234 7.746 107.856 8.28267 107.371 8.74C106.895 9.188 106.33 9.538 105.677 9.79C105.033 10.042 104.328 10.168 103.563 10.168ZM103.549 8.236C103.987 8.236 104.389 8.16133 104.753 8.012C105.126 7.86267 105.453 7.648 105.733 7.368C106.013 7.088 106.227 6.75667 106.377 6.374C106.535 5.99133 106.615 5.56667 106.615 5.1C106.615 4.63333 106.535 4.20867 106.377 3.826C106.227 3.44333 106.013 3.112 105.733 2.832C105.462 2.552 105.14 2.33733 104.767 2.188C104.393 2.03867 103.987 1.964 103.549 1.964C103.11 1.964 102.704 2.03867 102.331 2.188C101.967 2.33733 101.645 2.552 101.365 2.832C101.085 3.112 100.865 3.44333 100.707 3.826C100.557 4.20867 100.483 4.63333 100.483 5.1C100.483 5.55733 100.557 5.982 100.707 6.374C100.865 6.75667 101.08 7.088 101.351 7.368C101.631 7.648 101.957 7.86267 102.331 8.012C102.704 8.16133 103.11 8.236 103.549 8.236Z" fill="#1492EF"/>
<path d="M4.8 30.036C4.2 30.036 3.644 29.928 3.132 29.712C2.62 29.496 2.172 29.196 1.788 28.812C1.404 28.42 1.104 27.968 0.888 27.456C0.68 26.944 0.576 26.392 0.576 25.8C0.576 25.208 0.684 24.656 0.9 24.144C1.116 23.632 1.416 23.184 1.8 22.8C2.184 22.408 2.632 22.104 3.144 21.888C3.664 21.672 4.224 21.564 4.824 21.564C5.424 21.564 5.98 21.672 6.492 21.888C7.012 22.096 7.46 22.392 7.836 22.776C8.22 23.16 8.516 23.608 8.724 24.12C8.94 24.624 9.048 25.176 9.048 25.776C9.048 26.376 8.94 26.936 8.724 27.456C8.508 27.968 8.204 28.42 7.812 28.812C7.428 29.196 6.98 29.496 6.468 29.712C5.956 29.928 5.4 30.036 4.8 30.036ZM4.8 29.496C5.32 29.496 5.804 29.4 6.252 29.208C6.7 29.016 7.092 28.752 7.428 28.416C7.764 28.08 8.024 27.688 8.208 27.24C8.392 26.784 8.484 26.296 8.484 25.776C8.484 25.256 8.392 24.772 8.208 24.324C8.024 23.876 7.768 23.488 7.44 23.16C7.112 22.832 6.724 22.576 6.276 22.392C5.836 22.2 5.352 22.104 4.824 22.104C4.296 22.104 3.804 22.2 3.348 22.392C2.9 22.576 2.512 22.84 2.184 23.184C1.856 23.52 1.6 23.912 1.416 24.36C1.232 24.8 1.14 25.28 1.14 25.8C1.14 26.32 1.232 26.804 1.416 27.252C1.6 27.7 1.856 28.092 2.184 28.428C2.512 28.764 2.9 29.028 3.348 29.22C3.796 29.404 4.28 29.496 4.8 29.496ZM4.932 28.272C4.444 28.272 4.008 28.168 3.624 27.96C3.24 27.752 2.94 27.464 2.724 27.096C2.508 26.72 2.4 26.288 2.4 25.8C2.4 25.312 2.508 24.884 2.724 24.516C2.94 24.14 3.24 23.848 3.624 23.64C4.008 23.432 4.444 23.328 4.932 23.328C5.356 23.328 5.736 23.416 6.072 23.592C6.416 23.76 6.684 23.996 6.876 24.3L6.192 24.792C6.04 24.568 5.852 24.404 5.628 24.3C5.412 24.196 5.176 24.144 4.92 24.144C4.608 24.144 4.332 24.216 4.092 24.36C3.86 24.496 3.672 24.688 3.528 24.936C3.384 25.176 3.312 25.464 3.312 25.8C3.312 26.136 3.384 26.428 3.528 26.676C3.672 26.916 3.86 27.108 4.092 27.252C4.332 27.388 4.608 27.456 4.92 27.456C5.176 27.456 5.412 27.404 5.628 27.3C5.852 27.196 6.04 27.032 6.192 26.808L6.876 27.288C6.684 27.592 6.416 27.832 6.072 28.008C5.736 28.184 5.356 28.272 4.932 28.272ZM9.70791 30V29.184L13.1279 25.884C13.4319 25.596 13.6559 25.344 13.7999 25.128C13.9519 24.904 14.0519 24.7 14.0999 24.516C14.1559 24.324 14.1839 24.14 14.1839 23.964C14.1839 23.532 14.0319 23.192 13.7279 22.944C13.4239 22.696 12.9799 22.572 12.3959 22.572C11.9479 22.572 11.5439 22.648 11.1839 22.8C10.8239 22.944 10.5119 23.172 10.2479 23.484L9.43191 22.776C9.75191 22.368 10.1799 22.056 10.7159 21.84C11.2599 21.616 11.8559 21.504 12.5039 21.504C13.0879 21.504 13.5959 21.6 14.0279 21.792C14.4599 21.976 14.7919 22.244 15.0239 22.596C15.2639 22.948 15.3839 23.364 15.3839 23.844C15.3839 24.116 15.3479 24.384 15.2759 24.648C15.2039 24.912 15.0679 25.192 14.8679 25.488C14.6679 25.784 14.3799 26.116 14.0039 26.484L10.9559 29.424L10.6679 28.956H15.7439V30H9.70791ZM19.9108 30.096C19.2548 30.096 18.6668 29.928 18.1468 29.592C17.6348 29.256 17.2268 28.768 16.9228 28.128C16.6268 27.488 16.4788 26.712 16.4788 25.8C16.4788 24.888 16.6268 24.112 16.9228 23.472C17.2268 22.832 17.6348 22.344 18.1468 22.008C18.6668 21.672 19.2548 21.504 19.9108 21.504C20.5588 21.504 21.1428 21.672 21.6628 22.008C22.1828 22.344 22.5908 22.832 22.8868 23.472C23.1828 24.112 23.3308 24.888 23.3308 25.8C23.3308 26.712 23.1828 27.488 22.8868 28.128C22.5908 28.768 22.1828 29.256 21.6628 29.592C21.1428 29.928 20.5588 30.096 19.9108 30.096ZM19.9108 29.028C20.3508 29.028 20.7348 28.908 21.0628 28.668C21.3988 28.428 21.6588 28.068 21.8428 27.588C22.0348 27.108 22.1308 26.512 22.1308 25.8C22.1308 25.088 22.0348 24.492 21.8428 24.012C21.6588 23.532 21.3988 23.172 21.0628 22.932C20.7348 22.692 20.3508 22.572 19.9108 22.572C19.4708 22.572 19.0828 22.692 18.7468 22.932C18.4108 23.172 18.1468 23.532 17.9548 24.012C17.7708 24.492 17.6788 25.088 17.6788 25.8C17.6788 26.512 17.7708 27.108 17.9548 27.588C18.1468 28.068 18.4108 28.428 18.7468 28.668C19.0828 28.908 19.4708 29.028 19.9108 29.028ZM24.1107 30V29.184L27.5307 25.884C27.8347 25.596 28.0587 25.344 28.2027 25.128C28.3547 24.904 28.4547 24.7 28.5027 24.516C28.5587 24.324 28.5867 24.14 28.5867 23.964C28.5867 23.532 28.4347 23.192 28.1307 22.944C27.8267 22.696 27.3827 22.572 26.7987 22.572C26.3507 22.572 25.9467 22.648 25.5867 22.8C25.2267 22.944 24.9147 23.172 24.6507 23.484L23.8347 22.776C24.1547 22.368 24.5827 22.056 25.1187 21.84C25.6627 21.616 26.2587 21.504 26.9067 21.504C27.4907 21.504 27.9987 21.6 28.4307 21.792C28.8627 21.976 29.1947 22.244 29.4267 22.596C29.6667 22.948 29.7867 23.364 29.7867 23.844C29.7867 24.116 29.7507 24.384 29.6787 24.648C29.6067 24.912 29.4707 25.192 29.2707 25.488C29.0707 25.784 28.7827 26.116 28.4067 26.484L25.3587 29.424L25.0707 28.956H30.1467V30H24.1107ZM30.5507 27.936V27.096L34.8467 21.6H36.1427L31.8827 27.096L31.2707 26.904H37.9787V27.936H30.5507ZM35.2187 30V27.936L35.2547 26.904V25.08H36.3827V30H35.2187ZM42.1247 30V21.6H43.3247V30H42.1247ZM45.5995 30V21.6H46.5835L50.3515 27.948H49.8235L53.5435 21.6H54.5275L54.5395 30H53.3875L53.3755 23.412H53.6515L50.3395 28.98H49.7875L46.4515 23.412H46.7515V30H45.5995ZM56.8205 30V21.6H60.0965C60.8325 21.6 61.4605 21.716 61.9805 21.948C62.5005 22.18 62.9005 22.516 63.1805 22.956C63.4605 23.396 63.6005 23.92 63.6005 24.528C63.6005 25.136 63.4605 25.66 63.1805 26.1C62.9005 26.532 62.5005 26.868 61.9805 27.108C61.4605 27.34 60.8325 27.456 60.0965 27.456H57.4805L58.0205 26.892V30H56.8205ZM58.0205 27.012L57.4805 26.412H60.0605C60.8285 26.412 61.4085 26.248 61.8005 25.92C62.2005 25.592 62.4005 25.128 62.4005 24.528C62.4005 23.928 62.2005 23.464 61.8005 23.136C61.4085 22.808 60.8285 22.644 60.0605 22.644H57.4805L58.0205 22.044V27.012ZM63.4296 30L67.2336 21.6H68.4216L72.2376 30H70.9776L67.5816 22.272H68.0616L64.6656 30H63.4296ZM65.0496 27.9L65.3736 26.94H70.1016L70.4496 27.9H65.0496ZM74.3066 27.972L74.2466 26.508L79.0106 21.6H80.3786L76.6946 25.488L76.0226 26.232L74.3066 27.972ZM73.2506 30V21.6H74.4506V30H73.2506ZM79.2026 30L75.7586 25.992L76.5626 25.104L80.6066 30H79.2026ZM82.788 30V22.644H79.908V21.6H86.856V22.644H83.976V30H82.788ZM89.015 25.224H93.335V26.244H89.015V25.224ZM89.123 28.956H94.019V30H87.923V21.6H93.851V22.644H89.123V28.956ZM95.722 30V21.6H98.998C99.734 21.6 100.362 21.716 100.882 21.948C101.402 22.18 101.802 22.516 102.082 22.956C102.362 23.396 102.502 23.92 102.502 24.528C102.502 25.136 102.362 25.66 102.082 26.1C101.802 26.532 101.402 26.864 100.882 27.096C100.362 27.328 99.734 27.444 98.998 27.444H96.382L96.922 26.892V30H95.722ZM101.338 30L99.202 26.952H100.486L102.646 30H101.338ZM96.922 27.012L96.382 26.424H98.962C99.73 26.424 100.31 26.26 100.702 25.932C101.102 25.596 101.302 25.128 101.302 24.528C101.302 23.928 101.102 23.464 100.702 23.136C100.31 22.808 99.73 22.644 98.962 22.644H96.382L96.922 22.044V27.012ZM107.183 30V21.6H108.383V28.956H112.931V30H107.183ZM113.9 30V23.64H115.052V30H113.9ZM114.476 22.416C114.252 22.416 114.064 22.344 113.912 22.2C113.768 22.056 113.696 21.88 113.696 21.672C113.696 21.456 113.768 21.276 113.912 21.132C114.064 20.988 114.252 20.916 114.476 20.916C114.7 20.916 114.884 20.988 115.028 21.132C115.18 21.268 115.256 21.44 115.256 21.648C115.256 21.864 115.184 22.048 115.04 22.2C114.896 22.344 114.708 22.416 114.476 22.416ZM124.968 23.58C125.48 23.58 125.932 23.68 126.324 23.88C126.716 24.08 127.02 24.384 127.236 24.792C127.46 25.2 127.572 25.716 127.572 26.34V30H126.42V26.472C126.42 25.856 126.276 25.392 125.988 25.08C125.7 24.768 125.296 24.612 124.776 24.612C124.392 24.612 124.056 24.692 123.768 24.852C123.48 25.012 123.256 25.248 123.096 25.56C122.944 25.872 122.868 26.26 122.868 26.724V30H121.716V26.472C121.716 25.856 121.572 25.392 121.284 25.08C121.004 24.768 120.6 24.612 120.072 24.612C119.696 24.612 119.364 24.692 119.076 24.852C118.788 25.012 118.564 25.248 118.404 25.56C118.244 25.872 118.164 26.26 118.164 26.724V30H117.012V23.64H118.116V25.332L117.936 24.9C118.136 24.484 118.444 24.16 118.86 23.928C119.276 23.696 119.76 23.58 120.312 23.58C120.92 23.58 121.444 23.732 121.884 24.036C122.324 24.332 122.612 24.784 122.748 25.392L122.28 25.2C122.472 24.712 122.808 24.32 123.288 24.024C123.768 23.728 124.328 23.58 124.968 23.58ZM129.452 30V23.64H130.604V30H129.452ZM130.028 22.416C129.804 22.416 129.616 22.344 129.464 22.2C129.32 22.056 129.248 21.88 129.248 21.672C129.248 21.456 129.32 21.276 129.464 21.132C129.616 20.988 129.804 20.916 130.028 20.916C130.252 20.916 130.436 20.988 130.58 21.132C130.732 21.268 130.808 21.44 130.808 21.648C130.808 21.864 130.736 22.048 130.592 22.2C130.448 22.344 130.26 22.416 130.028 22.416ZM134.747 30.072C134.107 30.072 133.611 29.9 133.259 29.556C132.907 29.212 132.731 28.72 132.731 28.08V22.248H133.883V28.032C133.883 28.376 133.967 28.64 134.135 28.824C134.311 29.008 134.559 29.1 134.879 29.1C135.239 29.1 135.539 29 135.779 28.8L136.139 29.628C135.963 29.78 135.751 29.892 135.503 29.964C135.263 30.036 135.011 30.072 134.747 30.072ZM131.651 24.588V23.64H135.707V24.588H131.651ZM139.913 30.072C139.233 30.072 138.633 29.932 138.113 29.652C137.601 29.372 137.201 28.988 136.913 28.5C136.633 28.012 136.493 27.452 136.493 26.82C136.493 26.188 136.629 25.628 136.901 25.14C137.181 24.652 137.561 24.272 138.041 24C138.529 23.72 139.077 23.58 139.685 23.58C140.301 23.58 140.845 23.716 141.317 23.988C141.789 24.26 142.157 24.644 142.421 25.14C142.693 25.628 142.829 26.2 142.829 26.856C142.829 26.904 142.825 26.96 142.817 27.024C142.817 27.088 142.813 27.148 142.805 27.204H137.393V26.376H142.205L141.737 26.664C141.745 26.256 141.661 25.892 141.485 25.572C141.309 25.252 141.065 25.004 140.753 24.828C140.449 24.644 140.093 24.552 139.685 24.552C139.285 24.552 138.929 24.644 138.617 24.828C138.305 25.004 138.061 25.256 137.885 25.584C137.709 25.904 137.621 26.272 137.621 26.688V26.88C137.621 27.304 137.717 27.684 137.909 28.02C138.109 28.348 138.385 28.604 138.737 28.788C139.089 28.972 139.493 29.064 139.949 29.064C140.325 29.064 140.665 29 140.969 28.872C141.281 28.744 141.553 28.552 141.785 28.296L142.421 29.04C142.133 29.376 141.773 29.632 141.341 29.808C140.917 29.984 140.441 30.072 139.913 30.072ZM146.817 30.072C146.201 30.072 145.649 29.936 145.161 29.664C144.681 29.392 144.301 29.012 144.021 28.524C143.741 28.036 143.601 27.468 143.601 26.82C143.601 26.172 143.741 25.608 144.021 25.128C144.301 24.64 144.681 24.26 145.161 23.988C145.649 23.716 146.201 23.58 146.817 23.58C147.353 23.58 147.837 23.7 148.269 23.94C148.701 24.18 149.045 24.54 149.301 25.02C149.565 25.5 149.697 26.1 149.697 26.82C149.697 27.54 149.569 28.14 149.313 28.62C149.065 29.1 148.725 29.464 148.293 29.712C147.861 29.952 147.369 30.072 146.817 30.072ZM146.913 29.064C147.313 29.064 147.673 28.972 147.993 28.788C148.321 28.604 148.577 28.344 148.761 28.008C148.953 27.664 149.049 27.268 149.049 26.82C149.049 26.364 148.953 25.972 148.761 25.644C148.577 25.308 148.321 25.048 147.993 24.864C147.673 24.68 147.313 24.588 146.913 24.588C146.505 24.588 146.141 24.68 145.821 24.864C145.501 25.048 145.245 25.308 145.053 25.644C144.861 25.972 144.765 26.364 144.765 26.82C144.765 27.268 144.861 27.664 145.053 28.008C145.245 28.344 145.501 28.604 145.821 28.788C146.141 28.972 146.505 29.064 146.913 29.064ZM149.085 30V28.284L149.157 26.808L149.037 25.332V21.096H150.189V30H149.085Z" fill="#7C7C7C"/>
</svg>
