<svg width="28" height="23" viewBox="0 0 28 23" fill="none" xmlns="http://www.w3.org/2000/svg">
<path fill-rule="evenodd" clip-rule="evenodd" d="M8.92554 1.86859C10.4292 0.869002 12.1946 0.335754 14.0002 0.335754C15.8058 0.335754 17.5712 0.869002 19.0749 1.86859C20.5763 2.86666 21.75 4.28526 22.4492 5.94686C22.4863 6.02796 22.5489 6.09464 22.6274 6.13678C23.7179 6.6283 24.695 7.3403 25.497 8.228C26.3032 9.12032 26.9148 10.1707 27.2931 11.3122C27.6713 12.4537 27.8078 13.6615 27.6939 14.8586C27.5801 16.0558 27.2183 17.2162 26.6316 18.2659C26.045 19.3157 25.2463 20.2319 24.2863 20.9562C23.3264 21.6805 22.2262 22.1971 21.0557 22.4732C19.8853 22.7493 18.6702 22.7787 17.4877 22.5597C16.3077 22.3411 15.1859 21.8798 14.1934 21.2051C14.1358 21.1682 14.0687 21.1485 14.0002 21.1485C13.9317 21.1485 13.8647 21.1682 13.807 21.2051C12.8146 21.8798 11.6928 22.3411 10.5127 22.5597C9.33027 22.7787 8.11517 22.7493 6.94472 22.4732C5.77427 22.1971 4.67409 21.6805 3.71413 20.9562C2.75418 20.2319 1.95548 19.3157 1.36882 18.2659C0.782163 17.2162 0.420393 16.0558 0.306521 14.8586C0.192649 13.6615 0.329166 12.4537 0.707391 11.3122C1.08562 10.1707 1.69727 9.12032 2.50345 8.228C3.30546 7.3403 4.28252 6.6283 5.37308 6.13677C5.45153 6.09464 5.51412 6.02797 5.55121 5.94688C6.25045 4.28527 7.42414 2.86666 8.92554 1.86859ZM14.0002 1.66909C12.4572 1.66909 10.9486 2.12477 9.66368 2.97897C8.37871 3.83316 7.37464 5.04782 6.77743 6.47053L6.77236 6.4826L6.77225 6.48255C6.60886 6.85132 6.32254 7.15196 5.96217 7.33313C5.95332 7.33758 5.94438 7.34182 5.93535 7.34587C5.00677 7.76199 4.17495 8.36681 3.4928 9.12185C2.81065 9.87689 2.2931 10.7656 1.97306 11.7315C1.65302 12.6975 1.53751 13.7194 1.63386 14.7324C1.73022 15.7454 2.03633 16.7272 2.53273 17.6155C3.02913 18.5037 3.70496 19.279 4.51723 19.8919C5.3295 20.5047 6.26042 20.9419 7.2508 21.1755C8.24118 21.4091 9.26934 21.434 10.2699 21.2487C11.2704 21.0633 12.2214 20.6718 13.0624 20.099L13.0718 20.0926L13.0719 20.0927C13.3476 19.9117 13.6703 19.8152 14.0002 19.8152C14.3301 19.8152 14.6528 19.9117 14.9286 20.0927L14.9381 20.0989L14.938 20.099C15.779 20.6718 16.73 21.0633 17.7306 21.2487C18.7311 21.434 19.7593 21.4091 20.7496 21.1755C21.74 20.9419 22.671 20.5047 23.4832 19.8919C24.2955 19.279 24.9713 18.5037 25.4677 17.6155C25.9641 16.7272 26.2702 15.7454 26.3666 14.7324C26.4629 13.7194 26.3474 12.6975 26.0274 11.7315C25.7074 10.7656 25.1898 9.87689 24.5076 9.12185C23.8255 8.36681 22.9937 7.76199 22.0651 7.34587C22.0561 7.34182 22.0471 7.33758 22.0383 7.33313C21.6779 7.15196 21.3916 6.85132 21.2282 6.48255L21.2229 6.47058L21.223 6.47053C20.6258 5.04782 19.6217 3.83316 18.3368 2.97897C17.0518 2.12477 15.5432 1.66909 14.0002 1.66909Z" fill="#03A500"/>
</svg>
