<svg width="176" height="176" viewBox="0 0 176 176" fill="none" xmlns="http://www.w3.org/2000/svg">
<rect width="176" height="176" rx="8" fill="#FAFAFA"/>
<path fill-rule="evenodd" clip-rule="evenodd" d="M81 80C80.4477 80 80 80.4477 80 81V95C80 95.4288 80.2699 95.7946 80.6491 95.9367L91.2929 85.2929C91.6834 84.9024 92.3166 84.9024 92.7071 85.2929L96 88.5858V81C96 80.4477 95.5523 80 95 80H81ZM98 90.999V81C98 79.3431 96.6569 78 95 78H81C79.3431 78 78 79.3431 78 81V95C78 96.6569 79.3431 98 81 98H95C96.6569 98 98 96.6569 98 95V91.001C98 91.0003 98 90.9997 98 90.999ZM96 91.4142L92 87.4142L83.4142 96H95C95.5523 96 96 95.5523 96 95V91.4142ZM84.5 84C84.2239 84 84 84.2239 84 84.5C84 84.7761 84.2239 85 84.5 85C84.7761 85 85 84.7761 85 84.5C85 84.2239 84.7761 84 84.5 84ZM82 84.5C82 83.1193 83.1193 82 84.5 82C85.8807 82 87 83.1193 87 84.5C87 85.8807 85.8807 87 84.5 87C83.1193 87 82 85.8807 82 84.5Z" fill="#7C7C7C"/>
</svg>
